<?xml version="1.0" encoding="UTF-8"?>
<svg id="Layer_1" data-name="Layer 1" xmlns="http://www.w3.org/2000/svg" version="1.1" viewBox="0 0 800 800">
  <defs>
    <style>
      .cls-1 {
        fill: #137c43;
        stroke-width: 0px;
      }
    </style>
  </defs>
  <path class="cls-1" d="M400,171.8c-165.74,0-294.19,121.39-294.19,285.36,0,85.76,35.16,159.89,92.38,211.08,4.82,4.27,7.68,10.33,7.91,16.77l1.62,52.33c.09,3.03.77,6.01,1.99,8.78,5.25,11.89,19.14,17.28,31.03,12.03l58.4-25.82c4.95-2.16,10.5-2.55,15.7-1.1,26.84,7.35,55.38,11.29,85.17,11.29,165.74,0,294.19-121.39,294.19-285.36s-128.45-285.36-294.19-285.36ZM576.66,391.38l-86.42,137.09c-.63,1.01-1.31,1.99-2.02,2.94-14.62,19.5-42.28,23.45-61.78,8.83l-68.73-51.56c-6.31-4.72-14.98-4.69-21.26.07l-92.85,70.46c-12.39,9.38-28.54-5.44-20.26-18.61l86.42-137.09v-.04c.63-1.01,1.31-1.99,2.02-2.94,14.62-19.5,42.28-23.45,61.78-8.83l68.73,51.59c6.31,4.72,14.98,4.69,21.26-.07l92.85-70.46c12.39-9.38,28.57,5.44,20.26,18.61Z"/>
  <g>
    <path class="cls-1" d="M226.59,178.03l-37.46-65.71-25.84,14.73-6.98-12.25,66.15-37.71,6.98,12.25-25.84,14.73,37.46,65.71-14.48,8.25Z"/>
    <path class="cls-1" d="M291.17,146.14l-20.01-87.48,35.99-8.23c7.75-1.77,14.68-2.04,20.79-.81,6.11,1.23,11.2,3.84,15.27,7.82,4.07,3.98,6.83,9.18,8.3,15.59,1.47,6.42,1.23,12.3-.7,17.65-1.93,5.35-5.38,9.91-10.35,13.68-4.97,3.77-11.33,6.54-19.08,8.31l-26.99,6.17,5.51-9.28,7.52,32.87-16.25,3.72ZM300.3,111.31l-9.05-6.22,26.24-6c7.16-1.64,12.21-4.39,15.14-8.26,2.93-3.87,3.76-8.55,2.51-14.05-1.28-5.58-4.07-9.46-8.38-11.63-4.31-2.17-10.05-2.44-17.21-.8l-26.24,6,5.42-9.66,11.57,50.61Z"/>
    <path class="cls-1" d="M394.03,128.27l7.57-89.42,36.79,3.11c7.92.67,14.6,2.52,20.05,5.56,5.45,3.03,9.5,7.07,12.16,12.09,2.66,5.03,3.72,10.82,3.16,17.38-.55,6.56-2.57,12.07-6.03,16.54s-8.14,7.72-14.01,9.75c-5.88,2.03-12.77,2.71-20.69,2.04l-27.59-2.34,8.05-6.91-2.84,33.6-16.61-1.41ZM413.33,97.87l-6.74-8.55,26.83,2.27c7.32.62,12.97-.49,16.94-3.33,3.97-2.84,6.19-7.07,6.67-12.69.48-5.7-1-10.25-4.44-13.63-3.45-3.38-8.83-5.38-16.15-6l-26.83-2.27,8.1-7.55-4.38,51.73ZM452.54,133.23l-19.86-34.36,17.76,1.5,19.99,34.37-17.88-1.51Z"/>
    <path class="cls-1" d="M518.03,148.76l14.67-93.39,15.38,7.93-13.58,84.29-7.64-3.93,61.67-59.51,13.67,7.05-13.36,84.41-7.41-3.82,61.33-59.68,14.13,7.28-67.54,66.15-15.73-8.1,11.77-76.28,4.1,2.11-55.64,53.68-15.84-8.16Z"/>
  </g>
</svg>