<?xml version="1.0" encoding="UTF-8"?>
<svg id="Layer_1" data-name="Layer 1" xmlns="http://www.w3.org/2000/svg" version="1.1" viewBox="0 0 800 800">
  <defs>
    <style>
      .cls-1 {
        fill: #000;
      }

      .cls-1, .cls-2 {
        stroke-width: 0px;
      }

      .cls-2 {
        fill: #fff;
      }
    </style>
  </defs>
  <path class="cls-2" d="M612.65,273.25l-126.25,95.8c-8.53,6.48-20.32,6.52-28.9.1l-93.45-70.15c-26.51-19.88-64.12-14.51-84,12.01-.97,1.29-1.89,2.63-2.75,3.99v.05l-117.5,186.4c-11.25,17.9,10.7,38.05,27.55,25.3l126.25-95.8c8.53-6.48,20.32-6.52,28.9-.1l93.45,70.1c26.51,19.88,64.12,14.51,84-12.01.97-1.29,1.89-2.63,2.75-3.99l117.5-186.4c11.3-17.9-10.7-38.05-27.55-25.3Z"/>
  <path class="cls-1" d="M400,93c-172.96,0-307,126.68-307,297.79,0,89.49,36.69,166.85,96.4,220.27,5.03,4.46,8.01,10.78,8.25,17.5l1.69,54.61c.1,3.16.8,6.27,2.08,9.16,5.47,12.41,19.97,18.03,32.38,12.56l60.94-26.94c5.17-2.26,10.95-2.66,16.39-1.15,28.01,7.68,57.79,11.78,88.88,11.78,172.96,0,307-126.68,307-297.79S572.96,93,400,93ZM584.35,322.13l-90.18,143.06c-.66,1.05-1.37,2.07-2.11,3.07-15.26,20.35-44.12,24.47-64.47,9.21l-71.72-53.8c-6.58-4.93-15.63-4.9-22.18.08l-96.9,73.53c-12.93,9.79-29.78-5.68-21.14-19.42l90.18-143.06v-.04c.66-1.05,1.37-2.07,2.11-3.07,15.26-20.35,44.12-24.47,64.47-9.21l71.72,53.84c6.58,4.93,15.63,4.9,22.18-.08l96.9-73.53c12.93-9.79,29.82,5.68,21.14,19.42Z"/>
  <g>
    <path class="cls-1" d="M308.96,79.59l-10.99-39.85-15.41,4.25-1.11-4.01,35.47-9.78,1.11,4.01-15.41,4.25,10.99,39.85-4.64,1.28Z"/>
    <path class="cls-1" d="M347.66,70.7l-4.93-45.23,16.93-1.85c3.83-.42,7.2-.16,10.09.76,2.89.93,5.21,2.46,6.94,4.6,1.74,2.14,2.78,4.85,3.14,8.12.35,3.19-.1,6.02-1.33,8.48-1.23,2.47-3.16,4.48-5.78,6.02-2.62,1.55-5.85,2.53-9.68,2.95l-14.28,1.56,1.89-2.49,1.8,16.54-4.78.52ZM350.69,54.03l-2.39-2.09,14.15-1.54c4.52-.49,7.85-1.85,9.99-4.06,2.13-2.22,3.01-5.11,2.62-8.69-.39-3.62-1.87-6.29-4.44-8.02-2.56-1.72-6.11-2.34-10.63-1.85l-14.15,1.54,1.89-2.49,2.97,27.2Z"/>
    <path class="cls-1" d="M404.67,66.65l2.79-45.41,17,1.04c3.85.24,7.12,1.06,9.81,2.46,2.69,1.4,4.71,3.31,6.06,5.71,1.35,2.41,1.92,5.25,1.72,8.54-.2,3.2-1.11,5.91-2.75,8.13-1.63,2.22-3.87,3.86-6.72,4.93-2.84,1.06-6.19,1.48-10.04,1.24l-14.34-.88,2.28-2.07-1.02,16.61-4.8-.29ZM410.46,50.72l-2-2.4,14.21.87c4.54.28,8.05-.5,10.53-2.35,2.48-1.84,3.83-4.56,4.05-8.15.22-3.63-.78-6.52-3.02-8.65-2.24-2.13-5.62-3.34-10.17-3.62l-14.21-.87,2.28-2.14-1.68,27.31ZM435.68,68.55l-10.67-17.2,5.19.32,10.73,17.2-5.26-.32Z"/>
    <path class="cls-1" d="M472.21,74.33l-2.52-47.95,4.76,1.33,2.29,45.12-2.38-.67,25.81-37.26,4.26,1.19,2.55,45.19-2.25-.63,25.5-37.35,4.44,1.24-27.03,39.69-4.88-1.37-2.52-42.89,1.25.35-24.46,35.34-4.82-1.35Z"/>
  </g>
</svg>