<?xml version="1.0" encoding="UTF-8"?>
<svg id="Layer_1" data-name="Layer 1" xmlns="http://www.w3.org/2000/svg" version="1.1" viewBox="0 0 800 800">
  <defs>
    <style>
      .cls-1 {
        fill: #137c43;
        stroke-width: 0px;
      }
    </style>
  </defs>
  <path class="cls-1" d="M400,171.8c-165.74,0-294.19,121.39-294.19,285.36,0,85.76,35.16,159.89,92.38,211.08,4.82,4.27,7.68,10.33,7.91,16.77l1.62,52.33c.09,3.03.77,6.01,1.99,8.78,5.25,11.89,19.14,17.28,31.03,12.03l58.4-25.82c4.95-2.16,10.5-2.55,15.7-1.1,26.84,7.35,55.38,11.29,85.17,11.29,165.74,0,294.19-121.39,294.19-285.36s-128.45-285.36-294.19-285.36ZM576.66,391.38l-86.42,137.09c-.63,1.01-1.31,1.99-2.02,2.94-14.62,19.5-42.28,23.45-61.78,8.83l-68.73-51.56c-6.31-4.72-14.98-4.69-21.26.07l-92.85,70.46c-12.39,9.38-28.54-5.44-20.26-18.61l86.42-137.09v-.04c.63-1.01,1.31-1.99,2.02-2.94,14.62-19.5,42.28-23.45,61.78-8.83l68.73,51.59c6.31,4.72,14.98,4.69,21.26-.07l92.85-70.46c12.39-9.38,28.57,5.44,20.26,18.61Z"/>
  <g>
    <path class="cls-1" d="M136.72,259.17c-4.12,5.46-8.84,9.85-14.17,13.16-5.33,3.31-10.95,5.45-16.86,6.4-5.91.95-11.83.69-17.78-.8-5.95-1.48-11.58-4.23-16.9-8.24s-9.52-8.67-12.58-13.98c-3.07-5.3-4.94-10.95-5.63-16.92-.69-5.98-.19-11.96,1.5-17.97,1.69-6,4.62-11.77,8.78-17.3,4.42-5.87,9.47-10.47,15.13-13.8,5.67-3.33,11.74-5.17,18.22-5.54l1.61,14.7c-4.75.49-9.04,1.8-12.85,3.96-3.82,2.16-7.14,5.11-9.97,8.86-2.83,3.75-4.8,7.65-5.91,11.68-1.11,4.03-1.4,8.04-.87,12.02.53,3.98,1.85,7.76,3.97,11.34,2.12,3.58,5.02,6.75,8.71,9.53,3.69,2.78,7.54,4.69,11.56,5.74,4.02,1.05,8.02,1.28,12,.69,3.98-.59,7.75-1.97,11.32-4.15,3.57-2.18,6.77-5.15,9.6-8.9,2.83-3.75,4.75-7.76,5.77-12.02,1.02-4.26,1.07-8.77.16-13.52l14.67-2.43c1.37,6.28,1.25,12.61-.35,19-1.6,6.39-4.64,12.55-9.12,18.49Z"/>
    <path class="cls-1" d="M192.04,201.06l-13.78,9.38-50.48-74.19,13.78-9.38,50.48,74.19ZM209.83,142.43l-40.59,27.62-8-11.76,40.59-27.62,8,11.77ZM179.93,100.76l13.78-9.38,50.48,74.19-13.78,9.38-50.48-74.19Z"/>
    <path class="cls-1" d="M279.79,152.03l-29.98-84.58,15.71-5.57,29.98,84.58-15.71,5.57Z"/>
    <path class="cls-1" d="M347.47,119.65l50.34-5.49,1.52,13.89-66.91,7.3-9.74-89.21,65.12-7.11,1.52,13.89-48.55,5.3,6.7,61.43ZM330.3,37.96l15.72-15.51,14.27-1.56,18.69,11.76-13.25,1.45-18.26-8.97,11.98-1.31-15.9,12.7-13.25,1.45ZM342.03,81.56l44.35-4.84,1.49,13.64-44.35,4.84-1.49-13.64ZM367.26,22.06l12.9-16.5,17.08-1.86-17.74,17.02-12.23,1.33Z"/>
    <path class="cls-1" d="M468.32,138.26c-12.05-2.5-20.79-7.84-26.2-16.03-5.42-8.19-6.8-18.69-4.14-31.49l10.27-49.58,16.32,3.38-10.14,48.96c-1.87,9.04-1.29,16.01,1.75,20.92,3.04,4.91,8.12,8.1,15.23,9.57,7.11,1.47,13.02.56,17.72-2.74,4.7-3.3,7.98-9.47,9.86-18.51l10.14-48.96,16.07,3.33-10.27,49.58c-2.65,12.8-8.09,21.89-16.32,27.25-8.23,5.37-18.32,6.81-30.29,4.33Z"/>
    <path class="cls-1" d="M576.79,176.97l62.09-16.84-7.88,9.79,3.44-61.73,14.68,11.81-2.43,45.76-6.07-4.72,44.06-12.43,14.08,11.33-58.81,16.03,7.55-9.39-3.21,64.72-14.98-12.06,2.78-48.44,5.89,4.74-46.43,13.32-14.78-11.9Z"/>
    <path class="cls-1" d="M651.17,237.59l96.95-16.86,9.2,13.59-51.6,83.85-9.77-14.44,47.51-74.12,3.74,5.52-86.39,16.68-9.63-14.23ZM656.85,292.41c-1.2-1.77-1.65-3.66-1.36-5.66.29-2.01,1.4-3.65,3.31-4.95s3.89-1.73,5.93-1.3c2.04.42,3.66,1.52,4.86,3.29,1.2,1.77,1.61,3.68,1.25,5.73-.36,2.05-1.5,3.73-3.41,5.02s-3.85,1.7-5.82,1.23c-1.97-.47-3.56-1.59-4.75-3.36ZM678.79,241.34l13.34-3.61,27.17,40.13-8.31,11.05-32.2-47.56Z"/>
  </g>
</svg>