<?xml version="1.0" encoding="UTF-8"?>
<svg id="Layer_1" data-name="Layer 1" xmlns="http://www.w3.org/2000/svg" version="1.1" xmlns:xlink="http://www.w3.org/1999/xlink" viewBox="0 0 800 800">
  <defs>
    <style>
      .cls-1 {
        font-family: Montserrat-SemiBold, Montserrat;
        font-size: 128.2px;
        font-weight: 600;
      }

      .cls-1, .cls-2 {
        fill: #137c43;
      }

      .cls-2, .cls-3 {
        stroke-width: 0px;
      }

      .cls-3 {
        fill: #fff;
      }
    </style>
    <path id="path" d="M64,466c0-185.57,150.43-336,336-336s336,150.43,336,336-150.43,336-336,336S64,651.57,64,466Z"/>
  </defs>
  <path class="cls-3" d="M667.35,240.64l-158.73,120.44c-10.73,8.15-25.55,8.2-36.33.13l-117.49-88.2c-33.33-24.99-80.61-18.24-105.61,15.09-1.22,1.63-2.37,3.3-3.46,5.02v.06l-147.73,234.35c-14.14,22.5,13.45,47.84,34.64,31.81l158.73-120.44c10.73-8.15,25.55-8.2,36.33-.13l117.49,88.13c33.33,24.99,80.61,18.24,105.61-15.09,1.22-1.63,2.37-3.3,3.46-5.02l147.73-234.35c14.21-22.5-13.45-47.84-34.64-31.81Z"/>
  <path class="cls-2" d="M400,171.8c-165.74,0-294.19,121.39-294.19,285.36,0,85.76,35.16,159.89,92.38,211.08,4.82,4.27,7.68,10.33,7.91,16.77l1.62,52.33c.09,3.03.77,6.01,1.99,8.78,5.25,11.89,19.14,17.28,31.03,12.03l58.4-25.82c4.95-2.16,10.5-2.55,15.7-1.1,26.84,7.35,55.38,11.29,85.17,11.29,165.74,0,294.19-121.39,294.19-285.36s-128.45-285.36-294.19-285.36ZM576.66,391.38l-86.42,137.09c-.63,1.01-1.31,1.99-2.02,2.94-14.62,19.5-42.28,23.45-61.78,8.83l-68.73-51.56c-6.31-4.72-14.98-4.69-21.26.07l-92.85,70.46c-12.39,9.38-28.54-5.44-20.26-18.61l86.42-137.09v-.04c.63-1.01,1.31-1.99,2.02-2.94,14.62-19.5,42.28-23.45,61.78-8.83l68.73,51.59c6.31,4.72,14.98,4.69,21.26-.07l92.85-70.46c12.39-9.38,28.57,5.44,20.26,18.61Z"/>
  <text>
    <textPath startOffset="100.72%" xlink:href="#path"><tspan class="cls-1"><tspan x="0" y="0">CHIẾU XẠ</tspan></tspan>
    </textPath></text>
</svg>