<?xml version="1.0" encoding="UTF-8"?>
<svg id="Layer_1" data-name="Layer 1" xmlns="http://www.w3.org/2000/svg" version="1.1" viewBox="0 0 800 800">
  <defs>
    <style>
      .cls-1 {
        fill: #000;
      }

      .cls-1, .cls-2 {
        stroke-width: 0px;
      }

      .cls-2 {
        fill: #fff;
      }
    </style>
  </defs>
  <path class="cls-2" d="M612.65,273.25l-126.25,95.8c-8.53,6.48-20.32,6.52-28.9.1l-93.45-70.15c-26.51-19.88-64.12-14.51-84,12.01-.97,1.29-1.89,2.63-2.75,3.99v.05l-117.5,186.4c-11.25,17.9,10.7,38.05,27.55,25.3l126.25-95.8c8.53-6.48,20.32-6.52,28.9-.1l93.45,70.1c26.51,19.88,64.12,14.51,84-12.01.97-1.29,1.89-2.63,2.75-3.99l117.5-186.4c11.3-17.9-10.7-38.05-27.55-25.3Z"/>
  <path class="cls-1" d="M400,0C174.65,0,0,165.05,0,388c0,116.6,47.8,217.4,125.6,287,6.56,5.81,10.44,14.05,10.75,22.8l2.2,71.15c.13,4.12,1.05,8.17,2.71,11.94,7.13,16.17,26.02,23.5,42.19,16.36l79.4-35.1c6.73-2.94,14.27-3.47,21.35-1.5,36.5,10,75.3,15.35,115.8,15.35,225.35,0,400-165.05,400-388S625.35,0,400,0ZM640.2,298.55l-117.5,186.4c-.86,1.37-1.78,2.7-2.75,3.99-19.88,26.51-57.49,31.89-84,12.01l-93.45-70.1c-8.58-6.42-20.37-6.38-28.9.1l-126.25,95.8c-16.85,12.75-38.8-7.4-27.55-25.3l117.5-186.4v-.05c.86-1.37,1.78-2.7,2.75-3.99,19.88-26.51,57.49-31.89,84-12.01l93.45,70.15c8.58,6.42,20.37,6.38,28.9-.1l126.25-95.8c16.85-12.75,38.85,7.4,27.55,25.3Z"/>
</svg>