<?xml version="1.0" encoding="UTF-8"?>
<svg id="Layer_1" data-name="Layer 1" xmlns="http://www.w3.org/2000/svg" version="1.1" viewBox="0 0 800 800">
  <defs>
    <style>
      .cls-1 {
        fill: #137c43;
      }

      .cls-1, .cls-2 {
        stroke-width: 0px;
      }

      .cls-2 {
        fill: #fff;
      }
    </style>
  </defs>
  <path class="cls-2" d="M612.65,273.25l-126.25,95.8c-8.53,6.48-20.32,6.52-28.9.1l-93.45-70.15c-26.51-19.88-64.12-14.51-84,12.01-.97,1.29-1.89,2.63-2.75,3.99v.05l-117.5,186.4c-11.25,17.9,10.7,38.05,27.55,25.3l126.25-95.8c8.53-6.48,20.32-6.52,28.9-.1l93.45,70.1c26.51,19.88,64.12,14.51,84-12.01.97-1.29,1.89-2.63,2.75-3.99l117.5-186.4c11.3-17.9-10.7-38.05-27.55-25.3h0Z"/>
  <path class="cls-1" d="M400,93c-172.96,0-307,126.68-307,297.79,0,89.49,36.69,166.85,96.4,220.27,5.03,4.46,8.01,10.78,8.25,17.5l1.69,54.61c.1,3.16.8,6.27,2.08,9.16,5.47,12.41,19.97,18.03,32.38,12.56l60.94-26.94c5.17-2.26,10.95-2.66,16.39-1.15,28.01,7.68,57.79,11.78,88.88,11.78,172.96,0,307-126.68,307-297.79S572.96,93,400,93ZM584.35,322.13l-90.18,143.06c-.66,1.05-1.37,2.07-2.11,3.07-15.26,20.35-44.12,24.47-64.47,9.21l-71.72-53.8c-6.58-4.93-15.63-4.9-22.18.08l-96.9,73.53c-12.93,9.79-29.78-5.68-21.14-19.42l90.18-143.06v-.04c.66-1.05,1.37-2.07,2.11-3.07,15.26-20.35,44.12-24.47,64.47-9.21l71.72,53.84c6.58,4.93,15.63,4.9,22.18-.08l96.9-73.53c12.93-9.79,29.82,5.68,21.14,19.42h0Z"/>
  <g>
    <path class="cls-1" d="M243.91,106.19c-3,1.64-6.05,2.66-9.15,3.04-3.1.39-6.08.18-8.94-.63s-5.49-2.16-7.89-4.06c-2.4-1.9-4.4-4.31-6-7.24s-2.56-5.91-2.86-8.96c-.31-3.04-.02-5.99.87-8.85s2.32-5.48,4.32-7.88c2-2.4,4.5-4.42,7.5-6.07,2.89-1.58,5.87-2.58,8.95-3.01,3.08-.42,6.02-.15,8.83.84l-1.21,4.15c-2.55-.78-5.02-1-7.4-.66-2.38.34-4.71,1.13-7,2.38-2.4,1.31-4.4,2.94-6,4.88-1.61,1.94-2.76,4.08-3.46,6.41-.7,2.33-.93,4.73-.69,7.2.24,2.46,1.01,4.89,2.32,7.29,1.31,2.4,2.94,4.36,4.89,5.88s4.09,2.63,6.43,3.3c2.34.67,4.76.85,7.26.55,2.5-.31,4.95-1.11,7.34-2.42,2.28-1.25,4.2-2.79,5.76-4.63s2.7-4.05,3.42-6.61l4.15,1.21c-.69,2.9-2.04,5.53-4.04,7.92-2.01,2.38-4.47,4.37-7.4,5.98h0Z"/>
    <path class="cls-1" d="M282.58,87.97l-4.57,1.5-14.19-43.23,4.57-1.5,14.19,43.23ZM303.52,59l-27.98,9.18-1.32-4.01,27.98-9.18,1.32,4.01ZM295.44,35.86l4.51-1.48,14.19,43.23-4.51,1.48s-14.19-43.23-14.19-43.23Z"/>
    <path class="cls-1" d="M339.9,72.4l-7.83-44.82,4.74-.83,7.83,44.82-4.74.83Z"/>
    <path class="cls-1" d="M375.43,63.59l27.34-1.2.18,4.16-32.14,1.41-2-45.46,31.17-1.37.18,4.16-26.36,1.16s1.63,37.14,1.63,37.14ZM373.58,18.58l8.17-6.48,4.55-.2,8.71,5.73-4.42.19-8.33-4.58,3.64-.16-7.9,5.29-4.42.19v.02ZM373.99,42.64l24.03-1.06.18,4.09-24.03,1.06-.18-4.09ZM389.97,12.46l7.55-7.36,5.58-.25-9.04,7.42-4.09.18h0Z"/>
    <path class="cls-1" d="M443.5,70.21c-5.76-.75-10.08-3-12.95-6.74-2.88-3.74-3.89-8.85-3.04-15.34l3.38-25.85,4.77.62-3.35,25.65c-.7,5.33,0,9.42,2.07,12.27,2.07,2.85,5.3,4.56,9.69,5.13,4.42.58,8.01-.24,10.75-2.46s4.45-6,5.15-11.32l3.35-25.65,4.64.61-3.38,25.85c-.85,6.49-3.13,11.17-6.85,14.05s-8.46,3.94-14.22,3.19h0Z"/>
    <path class="cls-1" d="M508.87,84.55l26.9-16.14-1.42,3.42-7.02-28.88,5.1,2.12,5.95,24.15-2.01-.76,21.33-12.9,4.8,1.99-25.1,15.2,1.3-3.12,7.5,30.42-5.16-2.14-6.33-25.78,1.86.77-22.6,13.77-5.1-2.12h0Z"/>
    <path class="cls-1" d="M555.63,104.62l41.66-27.7,4.03,2.5-6.31,49.63-4.31-2.67,6.28-46.36,1.66,1.03-38.75,26.21-4.25-2.64h-.01ZM568.84,127.35c-.63-.39-1.04-.95-1.25-1.69-.21-.74-.09-1.46.34-2.16.43-.7,1.03-1.12,1.78-1.27.75-.15,1.44-.02,2.07.37.66.41,1.09.98,1.27,1.71.19.73.06,1.44-.37,2.14s-1.02,1.13-1.75,1.28c-.74.16-1.43.03-2.1-.38h0ZM569,98.61l3.27-2.56,22.48,13.95-.84,4.07-24.91-15.46Z"/>
  </g>
</svg>