<?xml version="1.0" encoding="UTF-8"?>
<svg id="Layer_1" data-name="Layer 1" xmlns="http://www.w3.org/2000/svg" version="1.1" viewBox="0 0 800 800">
  <defs>
    <style>
      .cls-1 {
        fill: #137c43;
        stroke-width: 0px;
      }
    </style>
  </defs>
  <path class="cls-1" d="M400,171.8c-165.74,0-294.19,121.39-294.19,285.36,0,85.76,35.16,159.89,92.38,211.08,4.82,4.27,7.68,10.33,7.91,16.77l1.62,52.33c.09,3.03.77,6.01,1.99,8.78,5.25,11.89,19.14,17.28,31.03,12.03l58.4-25.82c4.95-2.16,10.5-2.55,15.7-1.1,26.84,7.35,55.38,11.29,85.17,11.29,165.74,0,294.19-121.39,294.19-285.36s-128.45-285.36-294.19-285.36ZM576.66,391.38l-86.42,137.09c-.63,1.01-1.31,1.99-2.02,2.94-14.62,19.5-42.28,23.45-61.78,8.83l-68.73-51.56c-6.31-4.72-14.98-4.69-21.26.07l-92.85,70.46c-12.39,9.38-28.54-5.44-20.26-18.61l86.42-137.09v-.04c.63-1.01,1.31-1.99,2.02-2.94,14.62-19.5,42.28-23.45,61.78-8.83l68.73,51.59c6.31,4.72,14.98,4.69,21.26-.07l92.85-70.46c12.39-9.38,28.57,5.44,20.26,18.61Z"/>
  <g>
    <path class="cls-1" d="M92.9,325.13l-77.25-45.66,8.48-14.35,77.25,45.66-8.48,14.35ZM82.26,301.56l-17.45-9.27-18.11-65.36,9.52-16.11,15.86,54.79,4.02,13.1,6.15,22.85ZM124.73,271.27l-52.69,8.77-4.87-15.69,67.48-9.85-9.92,16.77Z"/>
    <path class="cls-1" d="M163.79,225.93l-12.65,10.85-58.41-68.12,12.65-10.85,58.41,68.12ZM174.96,165.69l-37.27,31.96-9.26-10.8,37.27-31.96,9.26,10.8ZM140.6,127.6l12.65-10.85,58.41,68.12-12.65,10.85-58.41-68.12Z"/>
    <path class="cls-1" d="M282.57,152.46c-6.56,2.46-13.01,3.65-19.34,3.56-6.33-.09-12.27-1.31-17.8-3.66-5.54-2.35-10.41-5.72-14.62-10.13-4.21-4.4-7.48-9.72-9.82-15.96-2.34-6.24-3.38-12.4-3.1-18.49.27-6.08,1.72-11.83,4.35-17.24,2.63-5.41,6.29-10.23,11-14.47,4.71-4.23,10.31-7.56,16.79-9.99,6.56-2.46,12.99-3.64,19.28-3.54,6.29.1,12.21,1.33,17.74,3.68,5.54,2.35,10.41,5.73,14.62,10.13,4.21,4.4,7.48,9.72,9.82,15.96,2.34,6.24,3.38,12.42,3.12,18.54-.26,6.12-1.71,11.87-4.35,17.24-2.64,5.37-6.3,10.17-10.97,14.38-4.67,4.22-10.25,7.54-16.73,9.97ZM277.32,138.82c4.24-1.59,7.89-3.78,10.95-6.57s5.41-6.02,7.04-9.69c1.64-3.67,2.52-7.56,2.67-11.68.14-4.11-.59-8.33-2.21-12.66-1.62-4.32-3.84-7.98-6.66-10.99-2.82-3-6.05-5.35-9.69-7.04-3.65-1.69-7.54-2.58-11.68-2.67-4.14-.09-8.33.66-12.57,2.25-4.24,1.59-7.87,3.77-10.89,6.55-3.02,2.78-5.37,6.01-7.04,9.69-1.68,3.69-2.58,7.59-2.73,11.7-.15,4.12.59,8.33,2.21,12.66,1.59,4.24,3.8,7.88,6.63,10.93,2.83,3.05,6.07,5.41,9.72,7.1,3.65,1.69,7.54,2.58,11.68,2.67,4.14.09,8.33-.66,12.57-2.25Z"/>
    <path class="cls-1" d="M409.28,129.1l9.37-89.25,16.57,1.74-7.89,75.22,46.66,4.9-1.47,14.02-63.24-6.64Z"/>
    <path class="cls-1" d="M486.48,137.58l72.25-66.81,15.1,6.42,2.2,98.43-16.05-6.82-.35-88.04,6.14,2.61-63.48,60.92-15.81-6.72ZM511.71,125.74l9.24-10.28,44.6,18.95-.98,13.79-52.86-22.45ZM521.02,180.53c-1.97-.84-3.37-2.18-4.21-4.02-.84-1.84-.81-3.83.09-5.95.9-2.12,2.33-3.56,4.27-4.31,1.94-.75,3.9-.71,5.87.12,1.96.83,3.35,2.21,4.16,4.14.81,1.92.76,3.94-.14,6.07s-2.31,3.52-4.22,4.2c-1.91.67-3.85.59-5.82-.24Z"/>
    <path class="cls-1" d="M595.54,189.85l60.15-66.6,10.18,9.19-4.54,89-5.04-4.55,46.31-51.28,12.27,11.08-60.15,66.6-10.18-9.19,4.55-89,5.04,4.55-46.31,51.28-12.27-11.08Z"/>
    <path class="cls-1" d="M685.12,286.64l-7.89-14.68,79.03-42.51,7.89,14.68-79.03,42.51ZM786.13,285l7.89,14.68-79.03,42.51-7.89-14.68,79.03-42.51ZM741.58,310.42l-23.26-43.24,12.53-6.74,23.26,43.24-12.53,6.74Z"/>
  </g>
</svg>