<?xml version="1.0" encoding="UTF-8"?>
<svg id="Layer_1" data-name="Layer 1" xmlns="http://www.w3.org/2000/svg" version="1.1" viewBox="0 0 800 800">
  <defs>
    <style>
      .cls-1 {
        fill: #000;
      }

      .cls-1, .cls-2 {
        stroke-width: 0px;
      }

      .cls-2 {
        fill: #fff;
      }
    </style>
  </defs>
  <path class="cls-2" d="M612.65,273.25l-126.25,95.8c-8.53,6.48-20.32,6.52-28.9.1l-93.45-70.15c-26.51-19.88-64.12-14.51-84,12.01-.97,1.29-1.89,2.63-2.75,3.99v.05l-117.5,186.4c-11.25,17.9,10.7,38.05,27.55,25.3l126.25-95.8c8.53-6.48,20.32-6.52,28.9-.1l93.45,70.1c26.51,19.88,64.12,14.51,84-12.01.97-1.29,1.89-2.63,2.75-3.99l117.5-186.4c11.3-17.9-10.7-38.05-27.55-25.3Z"/>
  <path class="cls-1" d="M400,93c-172.96,0-307,126.68-307,297.79,0,89.49,36.69,166.85,96.4,220.27,5.03,4.46,8.01,10.78,8.25,17.5l1.69,54.61c.1,3.16.8,6.27,2.08,9.16,5.47,12.41,19.97,18.03,32.38,12.56l60.94-26.94c5.17-2.26,10.95-2.66,16.39-1.15,28.01,7.68,57.79,11.78,88.88,11.78,172.96,0,307-126.68,307-297.79S572.96,93,400,93ZM584.35,322.13l-90.18,143.06c-.66,1.05-1.37,2.07-2.11,3.07-15.26,20.35-44.12,24.47-64.47,9.21l-71.72-53.8c-6.58-4.93-15.63-4.9-22.18.08l-96.9,73.53c-12.93,9.79-29.78-5.68-21.14-19.42l90.18-143.06v-.04c.66-1.05,1.37-2.07,2.11-3.07,15.26-20.35,44.12-24.47,64.47-9.21l71.72,53.84c6.58,4.93,15.63,4.9,22.18-.08l96.9-73.53c12.93-9.79,29.82,5.68,21.14,19.42Z"/>
  <g>
    <path class="cls-1" d="M209.05,126.7l-24.31-38.46,4.07-2.57,24.31,38.46-4.07,2.57ZM206.52,114.92l-3.29-4.84,8.15-38.68,4.67-2.95-5.72,28.53-.74,3.93-3.06,14.01ZM236.68,109.23l-28.68-8.63.87-4.7,32.64,10.28-4.83,3.06Z"/>
    <path class="cls-1" d="M262.95,96.09l-4.46,1.79-16.93-42.23,4.46-1.79,16.93,42.23ZM281.98,65.84l-27.33,10.96-1.57-3.92,27.33-10.96,1.57,3.92ZM272.44,43.26l4.4-1.77,16.93,42.23-4.4,1.77-16.93-42.23Z"/>
    <path class="cls-1" d="M338.09,73.14c-3.36.63-6.59.66-9.68.07-3.09-.59-5.88-1.71-8.38-3.38-2.5-1.67-4.59-3.77-6.28-6.29-1.69-2.53-2.84-5.43-3.46-8.71-.62-3.28-.6-6.4.05-9.37.65-2.97,1.84-5.68,3.56-8.14,1.72-2.46,3.9-4.53,6.54-6.19,2.64-1.67,5.66-2.82,9.07-3.46,3.36-.63,6.58-.65,9.65-.06,3.06.59,5.85,1.71,8.34,3.36,2.49,1.65,4.58,3.74,6.28,6.29,1.69,2.55,2.85,5.46,3.46,8.74.62,3.28.6,6.41-.05,9.4-.65,2.99-1.84,5.7-3.56,8.14-1.72,2.44-3.91,4.5-6.55,6.16-2.64,1.67-5.64,2.82-9.01,3.45ZM337.29,68.93c2.68-.51,5.08-1.43,7.18-2.77,2.1-1.34,3.84-3.02,5.21-5.02,1.36-2,2.31-4.2,2.82-6.62.52-2.41.52-4.96.02-7.64-.51-2.68-1.44-5.05-2.79-7.11-1.36-2.06-3.04-3.77-5.04-5.14-2-1.36-4.22-2.29-6.67-2.78-2.45-.49-5.02-.48-7.7.03-2.68.51-5.09,1.43-7.21,2.78-2.13,1.35-3.87,3.02-5.24,5.02-1.37,2-2.32,4.21-2.85,6.62s-.55,4.97-.05,7.65c.5,2.64,1.44,5,2.82,7.08,1.38,2.08,3.07,3.8,5.07,5.16,2,1.37,4.23,2.29,6.71,2.77,2.47.48,5.05.47,7.73-.03Z"/>
    <path class="cls-1" d="M412.51,67.03l3.26-45.38,4.8.34-2.96,41.23,25.42,1.83-.3,4.15-30.21-2.17Z"/>
    <path class="cls-1" d="M454.67,70.65l30.75-39.46,4.62,1.1,9.73,49.07-4.93-1.17-8.73-45.96,1.9.45-28.46,37.14-4.87-1.16ZM465.45,60.71l2.29-3.46,25.74,6.11.49,4.12-28.52-6.77ZM474.39,88.02c-.72-.17-1.29-.57-1.72-1.21-.43-.64-.55-1.36-.36-2.16.19-.8.62-1.39,1.29-1.77.67-.38,1.36-.48,2.08-.31.76.18,1.34.59,1.75,1.22.41.63.52,1.35.33,2.15-.19.8-.61,1.39-1.26,1.77-.65.38-1.35.48-2.11.3Z"/>
    <path class="cls-1" d="M517.26,87.65l18.42-41.61,3.63,1.6,12.71,48.85-1.9-.84,16-36.14,4.34,1.92-18.42,41.61-3.62-1.6-12.65-48.82,1.9.84-16,36.14-4.4-1.95Z"/>
    <path class="cls-1" d="M578.45,118.45l-3.95-2.75,26.01-37.34,3.95,2.75-26.01,37.33ZM614.19,117.75l-24.16-16.83,2.42-3.47,24.16,16.83-2.42,3.47ZM627.82,97.38l3.89,2.71-26.01,37.34-3.89-2.71,26.01-37.33Z"/>
  </g>
</svg>