<?xml version="1.0" encoding="UTF-8"?>
<svg id="Layer_1" data-name="Layer 1" xmlns="http://www.w3.org/2000/svg" version="1.1" viewBox="0 0 800 800">
  <defs>
    <style>
      .cls-1 {
        fill: #137c43;
        stroke-width: 0px;
      }
    </style>
  </defs>
  <path class="cls-1" d="M400,171.8c-165.74,0-294.19,121.39-294.19,285.36,0,85.76,35.16,159.89,92.38,211.08,4.82,4.27,7.68,10.33,7.91,16.77l1.62,52.33c.09,3.03.77,6.01,1.99,8.78,5.25,11.89,19.14,17.28,31.03,12.03l58.4-25.82c4.95-2.16,10.5-2.55,15.7-1.1,26.84,7.35,55.38,11.29,85.17,11.29,165.74,0,294.19-121.39,294.19-285.36s-128.45-285.36-294.19-285.36ZM576.66,391.38l-86.42,137.09c-.63,1.01-1.31,1.99-2.02,2.94-14.62,19.5-42.28,23.45-61.78,8.83l-68.73-51.56c-6.31-4.72-14.98-4.69-21.26.07l-92.85,70.46c-12.39,9.38-28.54-5.44-20.26-18.61l86.42-137.09v-.04c.63-1.01,1.31-1.99,2.02-2.94,14.62-19.5,42.28-23.45,61.78-8.83l68.73,51.59c6.31,4.72,14.98,4.69,21.26-.07l92.85-70.46c12.39-9.38,28.57,5.44,20.26,18.61Z"/>
  <g>
    <path class="cls-1" d="M223.72,179.78l-38.12-65.33-25.69,14.99-7.11-12.18,65.77-38.38,7.11,12.18-25.69,14.99,38.12,65.33-14.39,8.4Z"/>
    <path class="cls-1" d="M287.95,147.25l-20.89-87.27,35.91-8.6c7.73-1.85,14.66-2.19,20.78-1.02,6.12,1.17,11.24,3.73,15.35,7.66,4.11,3.94,6.93,9.11,8.46,15.51,1.53,6.4,1.36,12.29-.52,17.66-1.88,5.37-5.28,9.96-10.21,13.78-4.93,3.82-11.26,6.65-18.99,8.5l-26.93,6.45,5.41-9.34,7.85,32.79-16.21,3.88ZM296.73,112.33l-9.11-6.12,26.18-6.27c7.15-1.71,12.17-4.52,15.06-8.42,2.89-3.9,3.68-8.59,2.36-14.08-1.33-5.57-4.17-9.42-8.5-11.54-4.33-2.13-10.07-2.33-17.22-.62l-26.18,6.27,5.32-9.71,12.09,50.49Z"/>
    <path class="cls-1" d="M392.25,129.86l1.45-89.73,16.66.27-1.46,89.73-16.66-.27Z"/>
    <path class="cls-1" d="M447.23,131.47l21.56-87.11,35.84,8.87c7.71,1.91,14.02,4.79,18.92,8.65,4.9,3.85,8.27,8.48,10.11,13.86,1.84,5.39,1.96,11.27.38,17.66-1.58,6.39-4.43,11.51-8.56,15.38-4.13,3.86-9.25,6.34-15.37,7.42-6.12,1.08-13.04.67-20.76-1.24l-26.88-6.65,9.04-5.56-8.1,32.73-16.18-4ZM471.07,104.49l-5.31-9.5,26.13,6.47c7.13,1.77,12.89,1.56,17.25-.61,4.37-2.18,7.23-6,8.59-11.48,1.38-5.56.63-10.28-2.24-14.16-2.87-3.88-7.87-6.7-15.01-8.47l-26.13-6.47,9.19-6.18-12.48,50.4ZM504.22,145.58l-14.2-37.06,17.3,4.28,14.33,37.09-17.42-4.31Z"/>
    <path class="cls-1" d="M548.73,162.62l47.66-76.03,31.28,19.61c6.73,4.22,11.83,8.93,15.28,14.12,3.45,5.19,5.21,10.63,5.28,16.32.06,5.69-1.65,11.32-5.15,16.9-3.5,5.58-7.81,9.56-12.93,11.94-5.13,2.38-10.77,3.14-16.92,2.25-6.16-.88-12.6-3.43-19.33-7.66l-23.46-14.71,10.32-2.46-17.91,28.57-14.12-8.85ZM579.8,144.42l-2.08-10.68,22.81,14.3c6.23,3.9,11.76,5.5,16.58,4.8,4.83-.7,8.74-3.45,11.74-8.23,3.04-4.85,3.8-9.57,2.29-14.15-1.52-4.58-5.39-8.82-11.62-12.73l-22.81-14.3,10.66-3-27.58,43.99ZM598.47,193.8l-1.93-39.64,15.1,9.46,2.04,39.71-15.21-9.53Z"/>
  </g>
</svg>