<?xml version="1.0" encoding="UTF-8"?>
<svg id="Layer_1" data-name="Layer 1" xmlns="http://www.w3.org/2000/svg" version="1.1" viewBox="0 0 800 800">
  <defs>
    <style>
      .cls-1 {
        fill: #137c43;
      }

      .cls-1, .cls-2 {
        stroke-width: 0px;
      }

      .cls-2 {
        fill: #fff;
      }
    </style>
  </defs>
  <path class="cls-2" d="M612.65,273.25l-126.25,95.8c-8.53,6.48-20.32,6.52-28.9.1l-93.45-70.15c-26.51-19.88-64.12-14.51-84,12.01-.97,1.29-1.89,2.63-2.75,3.99v.05l-117.5,186.4c-11.25,17.9,10.7,38.05,27.55,25.3l126.25-95.8c8.53-6.48,20.32-6.52,28.9-.1l93.45,70.1c26.51,19.88,64.12,14.51,84-12.01.97-1.29,1.89-2.63,2.75-3.99l117.5-186.4c11.3-17.9-10.7-38.05-27.55-25.3h0Z"/>
  <path class="cls-1" d="M400,93c-172.96,0-307,126.68-307,297.79,0,89.49,36.69,166.85,96.4,220.27,5.03,4.46,8.01,10.78,8.25,17.5l1.69,54.61c.1,3.16.8,6.27,2.08,9.16,5.47,12.41,19.97,18.03,32.38,12.56l60.94-26.94c5.17-2.26,10.95-2.66,16.39-1.15,28.01,7.68,57.79,11.78,88.88,11.78,172.96,0,307-126.68,307-297.79S572.96,93,400,93ZM584.35,322.13l-90.18,143.06c-.66,1.05-1.37,2.07-2.11,3.07-15.26,20.35-44.12,24.47-64.47,9.21l-71.72-53.8c-6.58-4.93-15.63-4.9-22.18.08l-96.9,73.53c-12.93,9.79-29.78-5.68-21.14-19.42l90.18-143.06v-.04c.66-1.05,1.37-2.07,2.11-3.07,15.26-20.35,44.12-24.47,64.47-9.21l71.72,53.84c6.58,4.93,15.63,4.9,22.18-.08l96.9-73.53c12.93-9.79,29.82,5.68,21.14,19.42h0Z"/>
  <g>
    <path class="cls-1" d="M305.51,80.59l-11.42-39.73-15.37,4.42-1.15-4,35.36-10.16,1.15,4-15.37,4.42,11.42,39.73-4.62,1.33h0Z"/>
    <path class="cls-1" d="M344.12,71.28l-5.42-45.18,16.91-2.03c3.83-.46,7.19-.24,10.1.66,2.9.9,5.23,2.41,6.99,4.53,1.76,2.12,2.84,4.82,3.23,8.09.38,3.18-.03,6.02-1.24,8.5s-3.12,4.51-5.72,6.09c-2.6,1.58-5.82,2.6-9.65,3.06l-14.26,1.71,1.86-2.51,1.98,16.52-4.78.57h0ZM346.96,54.57l-2.41-2.07,14.13-1.69c4.52-.54,7.83-1.93,9.94-4.17,2.11-2.24,2.95-5.14,2.52-8.71-.43-3.61-1.94-6.27-4.52-7.97-2.58-1.7-6.13-2.28-10.65-1.73l-14.13,1.69,1.86-2.51,3.26,27.17h0Z"/>
    <path class="cls-1" d="M401.46,66.98l.74-45.49,4.81.08-.74,45.49-4.81-.08Z"/>
    <path class="cls-1" d="M432.66,68.19l6.58-45.02,16.85,2.46c3.82.56,7.01,1.65,9.57,3.27s4.42,3.69,5.56,6.2c1.14,2.51,1.48,5.4,1,8.65-.46,3.17-1.6,5.8-3.42,7.88-1.81,2.08-4.18,3.53-7.11,4.35-2.92.82-6.29.95-10.11.39l-14.21-2.08,2.44-1.88-2.41,16.46-4.76-.7.02.02ZM439.77,52.81l-1.79-2.56,14.08,2.06c4.5.66,8.07.17,10.69-1.46,2.62-1.63,4.2-4.23,4.72-7.78.53-3.6-.24-6.56-2.28-8.87-2.05-2.31-5.32-3.8-9.83-4.46l-14.08-2.06,2.45-1.94-3.96,27.08h0ZM463.4,72.69l-9.19-18.03,5.15.75,9.25,18.04-5.21-.76Z"/>
    <path class="cls-1" d="M489.75,78.83l14.34-43.18,16.16,5.37c3.66,1.22,6.61,2.85,8.85,4.89,2.24,2.05,3.71,4.41,4.4,7.08s.51,5.57-.52,8.7c-1.01,3.04-2.59,5.43-4.74,7.16-2.15,1.73-4.74,2.74-7.76,3.04s-6.36-.16-10.02-1.38l-13.63-4.53,2.73-1.42-5.24,15.79s-4.57-1.52-4.57-1.52ZM499.44,64.92l-1.32-2.84,13.51,4.49c4.32,1.43,7.91,1.58,10.78.43,2.87-1.15,4.87-3.43,6-6.84,1.15-3.45.91-6.5-.7-9.14s-4.58-4.67-8.9-6.1l-13.51-4.49,2.75-1.48-8.62,25.97h.01ZM519.24,88.62l-5.9-19.36,4.94,1.64,5.96,19.38s-5-1.66-5-1.66Z"/>
  </g>
</svg>