<?xml version="1.0" encoding="UTF-8"?>
<svg id="Layer_1" data-name="Layer 1" xmlns="http://www.w3.org/2000/svg" version="1.1" viewBox="0 0 800 800">
  <defs>
    <style>
      .cls-1 {
        fill: #fff;
        stroke: #000;
        stroke-miterlimit: 10;
      }

      .cls-2 {
        fill: #231f20;
        stroke-width: 0px;
      }
    </style>
  </defs>
  <polygon class="cls-1" points="514.92 368.09 460.06 368.09 538.07 290.07 526.29 278.29 448.28 356.3 448.28 301.44 431.61 301.44 431.61 384.75 514.92 384.75 514.92 368.09"/>
  <path class="cls-1" d="M542.22,462.4c-22.05,0-43.56-3.56-63.47-10.13-1.78-.71-3.73-.89-5.51-.89-4.62,0-9.07,1.78-12.62,5.16l-39.11,39.11c-50.31-25.78-91.56-66.84-117.16-117.16l39.11-39.11c4.98-4.98,6.4-11.91,4.44-18.13-6.58-19.91-10.14-41.24-10.14-63.47,0-9.78-8-17.78-17.78-17.78h-62.22c-9.78,0-17.78,8-17.78,17.78,0,166.93,135.29,302.22,302.22,302.22,9.78,0,17.78-8,17.78-17.78v-62.05c0-9.78-8-17.78-17.78-17.78ZM276.09,275.56h26.84c1.07,15.82,3.73,31.29,8,46.04l-21.33,21.33c-7.29-21.33-11.91-43.91-13.51-67.38ZM524.44,523.73c-23.46-1.6-46.04-6.22-67.56-13.33l21.34-21.16c15.11,4.27,30.58,6.93,46.22,8v26.49Z"/>
  <path class="cls-2" d="M400,0C179.09,0,0,179.09,0,400s179.09,400,400,400,400-179.09,400-400S620.91,0,400,0ZM431.61,301.44h16.66v54.87l78.01-78.01,11.78,11.78-78.01,78.01h54.87v16.66h-83.31v-83.31ZM560,542.22c0,9.78-8,17.78-17.78,17.78-166.94,0-302.22-135.29-302.22-302.22,0-9.78,8-17.78,17.78-17.78h62.22c9.78,0,17.78,8,17.78,17.78,0,22.22,3.56,43.56,10.14,63.47,1.96,6.22.53,13.16-4.44,18.13l-39.11,39.11c25.6,50.31,66.84,91.38,117.16,117.16l39.11-39.11c3.55-3.38,8-5.16,12.62-5.16,1.78,0,3.73.18,5.51.89,19.91,6.58,41.42,10.13,63.47,10.13,9.78,0,17.78,8,17.78,17.78v62.05Z"/>
  <path class="cls-2" d="M302.93,275.56h-26.84c1.6,23.47,6.22,46.04,13.51,67.38l21.33-21.33c-4.27-14.76-6.93-30.22-8-46.04Z"/>
  <path class="cls-2" d="M456.89,510.4c21.51,7.11,44.09,11.73,67.56,13.33v-26.49c-15.64-1.07-31.11-3.73-46.22-8l-21.34,21.16Z"/>
</svg>