<?xml version="1.0" encoding="UTF-8"?>
<svg id="Layer_1" data-name="Layer 1" xmlns="http://www.w3.org/2000/svg" version="1.1" xmlns:xlink="http://www.w3.org/1999/xlink" viewBox="0 0 4096 4096">
  <defs>
    <style>
      .cls-1 {
        fill: url(#linear-gradient);
        fill-rule: evenodd;
        isolation: isolate;
        opacity: .1;
      }

      .cls-1, .cls-2, .cls-3 {
        stroke-width: 0px;
      }

      .cls-2 {
        fill: #137c43;
      }

      .cls-3 {
        fill: #fff;
      }
    </style>
    <linearGradient id="linear-gradient" x1="2443.78" y1="3516.96" x2="2716.15" y2="3955.79" gradientTransform="translate(0 -808)" gradientUnits="userSpaceOnUse">
      <stop offset="0" stop-color="#010101"/>
      <stop offset=".94" stop-color="#010101" stop-opacity=".06"/>
      <stop offset="1" stop-color="#010101" stop-opacity="0"/>
    </linearGradient>
  </defs>
  <g>
    <path class="cls-2" d="M2178.9,4.08C944.07-72.7-73.22,944.59,3.56,2179.42c63.98,1017.29,889.33,1849.04,1913.02,1913.02,1234.83,76.78,2252.12-940.52,2175.34-2175.34C4021.54,893.41,3196.19,68.06,2178.9,4.08ZM1507.1,3305.48c-25.59-12.8-63.98-19.19-89.57-6.4-159.95,70.38-377.49,108.77-543.84,95.97-31.99,0-38.39-12.8-19.19-38.39,134.36-134.36,217.53-358.29,127.96-486.25v-6.4c-620.61-588.62-582.22-1874.63-38.39-2412.07C1219.19,183.23,1622.27,48.87,2031.74,48.87c1113.26,0,2015.39,902.13,2015.39,2015.39,0,358.29-127.96,729.38-358.29,978.9-524.64,563.03-1465.16,665.4-2181.74,262.32h0Z"/>
    <path class="cls-1" d="M4091.92,2102.64L841.7,3388.66s390.28,703.79,1183.64,703.79c1138.85,0,2053.78-895.73,2066.57-1989.8h0Z"/>
  </g>
  <path class="cls-3" d="M1507.1,3305.48c-25.59-12.8-63.98-19.19-89.57-6.4-159.95,70.38-377.49,108.77-543.84,95.97-31.99,0-38.39-12.8-19.19-38.39,134.36-134.36,217.53-358.29,127.96-486.25v-6.4c-620.61-588.62-582.22-1874.63-38.39-2412.07C1219.19,183.23,1622.27,48.87,2031.74,48.87c1113.26,0,2015.39,902.13,2015.39,2015.39,0,358.29-127.96,729.38-358.29,978.9-524.64,563.03-1465.16,665.4-2181.74,262.32h0Z"/>
  <g>
    <path class="cls-2" d="M1775.82,1539.61c6.4-6.4,31.99-38.39,31.99-38.39,31.99-44.79,38.39-76.78,38.39-121.56v-25.59h-780.56v166.35h543.84l-537.44,659c-12.8,25.59-31.99,44.79-31.99,102.37v44.79h735.78c38.39,0,70.38-31.99,70.38-70.38v-89.57h-569.43l499.05-627.01h-.01Z"/>
    <path class="cls-2" d="M2767.52,2268.99c0,31.99,31.99,51.18,63.98,51.18h108.77v-959.71h-166.35v908.53h-6.4Z"/>
    <path class="cls-2" d="M3810.41,1904.3c-25.59-166.35-159.95-307.11-326.3-326.3-249.52-31.99-460.66,179.15-428.67,428.67,25.59,166.35,159.95,307.11,326.3,326.3,255.92,25.59,460.66-179.15,428.67-428.67h0ZM3656.85,1974.68c-6.4,108.77-89.57,191.94-198.34,198.34-147.15,12.8-262.32-108.77-243.13-243.13,6.4-108.77,89.57-191.94,198.34-198.34,140.76-12.8,262.32,102.37,243.13,243.13Z"/>
    <path class="cls-2" d="M2486.01,1648.38c-63.98-44.79-140.76-76.78-223.93-76.78-217.53,0-390.28,179.15-383.88,390.28,6.4,198.34,166.35,358.29,364.69,364.69,89.57,0,179.15-25.59,236.73-76.78h0c0,38.39,31.99,70.38,70.38,70.38h89.57v-735.78h-153.55v63.98h-.01ZM2255.68,2179.42c-140.76,0-243.13-121.56-223.93-268.72,12.8-83.17,83.17-153.55,179.15-179.15,147.15-31.99,268.72,83.17,268.72,223.93,0,121.56-89.57,223.93-223.93,223.93h-.01Z"/>
  </g>
</svg>