<?xml version="1.0" encoding="utf-8"?>
<!-- Generator: Adobe Illustrator 26.0.3, SVG Export Plug-In . SVG Version: 6.00 Build 0)  -->
<svg version="1.0" id="Layer_1" xmlns="http://www.w3.org/2000/svg" xmlns:xlink="http://www.w3.org/1999/xlink" x="0px" y="0px"
	 viewBox="0 0 669 550" style="enable-background:new 0 0 669 550;" xml:space="preserve">
<style type="text/css">
	.st0{fill:#2A215B;}
	.st1{fill:#029D49;}
	.st2{fill:#0A713B;}
</style>
<g>
	<g>
		<polygon class="st0" points="3,440.31 29.57,440.31 29.57,498.12 44.17,498.12 44.17,440.31 70.75,440.31 70.75,427.81 3,427.81 
					"/>
	</g>
	<g>
		<path class="st0" d="M146.13,436.83c-3.61-3.16-7.94-5.62-13.01-7.36c-5.07-1.74-10.65-2.61-16.76-2.61
			c-6.14,0-11.74,0.87-16.79,2.61c-5.05,1.74-9.38,4.19-12.99,7.36c-3.61,3.16-6.41,6.95-8.41,11.36c-2,4.41-2.99,9.27-2.99,14.57
			c0,5.34,1,10.23,2.99,14.69c2,4.45,4.8,8.29,8.41,11.49c3.61,3.21,7.93,5.71,12.99,7.49c5.05,1.78,10.65,2.67,16.79,2.67
			c6.11,0,11.7-0.89,16.76-2.67c5.07-1.79,9.4-4.28,13.01-7.49c3.61-3.21,6.41-7.04,8.4-11.49c2-4.45,2.99-9.35,2.99-14.69
			c0-5.31-1-10.17-2.99-14.57C152.54,443.78,149.74,439.99,146.13,436.83z M140.9,472.57c-1.35,2.91-3.21,5.39-5.57,7.44
			c-2.36,2.06-5.17,3.64-8.4,4.75c-3.24,1.11-6.76,1.67-10.57,1.67c-3.81,0-7.33-0.56-10.57-1.67c-3.24-1.11-6.05-2.69-8.43-4.75
			c-2.38-2.05-4.24-4.53-5.57-7.44c-1.34-2.91-2-6.18-2-9.81c0-3.63,0.67-6.88,2-9.76c1.33-2.88,3.19-5.32,5.57-7.31
			c2.38-1.99,5.19-3.51,8.43-4.57c3.24-1.05,6.76-1.57,10.57-1.57c3.81,0,7.33,0.53,10.57,1.57c3.24,1.05,6.04,2.57,8.4,4.57
			c2.36,1.99,4.22,4.43,5.57,7.31c1.35,2.88,2.03,6.13,2.03,9.76C142.93,466.39,142.25,469.66,140.9,472.57z"/>
	</g>
	<g>
		<path class="st0" d="M221.77,483.97l6.88,14.15h15.34l-34.82-70.31H193.7l-33.81,70.31h15.38l6.68-14.15H221.77z M201.58,442.61
			l15.57,31.94h-30.72L201.58,442.61z"/>
	</g>
	<g>
		<path class="st0" d="M553.85,427.81l-33.8,70.31h15.38l6.68-14.15h39.81l6.89,14.15h15.34l-34.82-70.31H553.85z M546.57,474.55
			l15.15-31.94l15.57,31.94H546.57z"/>
	</g>
	<g>
		<polygon class="st0" points="313,482.55 267.56,427.81 253.54,427.81 253.54,498.12 268.14,498.12 268.14,443.45 313.51,498.12 
			327.59,498.12 327.59,427.81 313,427.81 		"/>
	</g>
	<g>
		<polygon class="st0" points="497.29,448.95 452.52,448.95 452.52,427.81 437.92,427.81 437.92,498.12 452.52,498.12 
			452.52,458.35 497.29,458.35 497.29,498.12 511.93,498.12 511.93,427.81 497.29,427.81 		"/>
	</g>
	<g>
		<polygon class="st0" points="597.25,427.81 597.25,440.31 623.83,440.31 623.83,498.12 638.43,498.12 638.43,440.31 665,440.31 
			665,427.81 		"/>
	</g>
	<g>
		<path class="st0" d="M409.59,429.64c-0.01,0-0.01,0-0.01-0.01c-0.08-0.02-0.15-0.04-0.23-0.07c-3.51-1.01-7.58-1.59-12.19-1.72
			c-0.32-0.01-0.65-0.02-0.98-0.02c-0.39-0.01-0.8-0.01-1.2-0.01h-37.95v70.31h14.6v-21.97h14.58c0.11,0,0.22,0,0.33,0
			c0.11,0,0.22,0,0.33,0h12.53c0.08,0,0.15,0,0.23,0c0.05,0,0.1,0,0.15,0h1.02l-0.02-0.02c13.6-0.56,24.44-11.17,24.44-24.19
			C425.2,441.92,418.76,433.32,409.59,429.64z M411.9,455.03c0,0.01,0,0.02-0.01,0.04c-0.11,1.22-0.36,2.38-0.74,3.46
			c-0.07,0.19-0.14,0.38-0.22,0.58c-0.69,1.69-1.74,3.13-3.13,4.32c-1.4,1.19-3.13,2.1-5.2,2.75c-2.07,0.64-4.49,0.97-7.25,0.97
			h-23.72v-26.9h23.72c5.52,0,9.68,1.16,12.46,3.48c2.78,2.33,4.17,5.57,4.17,9.74C411.97,453.99,411.95,454.51,411.9,455.03z"/>
	</g>
</g>
<path class="st1" d="M518.93,243.17l0.2-0.1l-0.31-0.4L483.4,78.63L334.01,2.96L185.09,77.67l-36.06,164.7l101.92,134.1H415.6
	l0.88-1.13l0.01,0l0.01-0.02l102.48-131.97L518.93,243.17z M423.13,346.18l14.2-62.43l55.84-27.77L423.13,346.18z M409.42,363.83
	h-0.05l-66.12-33.3l85.9-42.71l-16.29,71.58L409.42,363.83z M162.81,239.61l47.02-60.91l20.96,95.2l-67.93-34.21L162.81,239.61z
	 M232.75,282.81l15.14,68.76l-75.28-99.05L232.75,282.81z M257.85,363.83l-16.94-76.92l86.52,43.58l-67.05,33.34H257.85z
	 M238.94,278l-23.48-106.61l66.06-85.58l108.06,0.35l65.93,85.76L431.17,278.9l-95.83,47.65L238.94,278z M320.3,23.99l-42.24,54.72
	l-66.41-0.22L320.3,23.99z M334.38,17.32l3.74,1.89l46,59.84l-97.15-0.32L334.38,17.32z M352.74,26.62L456.73,79.3l-63.65-0.21
	L352.74,26.62z M470.8,86.42l1.51,0.77l1.2,5.58l-15.97,70.19l-59.02-76.77L470.8,86.42z M197.62,85.53l74.99,0.25l-59.13,76.6
	l-16.82-76.36L197.62,85.53z M505.37,240.26l-2.2,2.83l-63.81,31.73l21.75-95.63l43.21,56.21L505.37,240.26z M463.15,170.24
	l13.9-61.1l23.78,110.13L463.15,170.24z M192.82,101.47l15.02,68.21l-41.82,54.17L192.82,101.47z M276.27,363.83l59.05-29.36
	l58.3,29.36H276.27z"/>
<g>
	<g>
		<path class="st2" d="M72.21,525.95H85.1v2.74h-5.09v16.59h-2.85v-16.59h-4.95V525.95z"/>
		<path class="st2" d="M100.27,525.95c1.01,0,1.95,0.14,2.81,0.41s1.6,0.67,2.21,1.18c0.61,0.51,1.09,1.15,1.44,1.9
			s0.52,1.63,0.52,2.62c0,0.76-0.11,1.52-0.35,2.26c-0.23,0.75-0.6,1.42-1.12,2.02c-0.51,0.6-1.19,1.09-2.02,1.45
			c-0.83,0.36-1.87,0.55-3.12,0.55h-2.82v6.92h-2.85v-19.33H100.27z M100.59,535.64c0.73,0,1.33-0.11,1.82-0.35
			c0.49-0.23,0.87-0.52,1.14-0.86c0.28-0.35,0.47-0.72,0.59-1.12c0.11-0.4,0.17-0.79,0.17-1.16c0-0.36-0.06-0.73-0.17-1.12
			s-0.31-0.76-0.59-1.12c-0.28-0.36-0.64-0.65-1.1-0.88c-0.46-0.23-1.03-0.35-1.7-0.35h-2.93v6.95H100.59z M103.87,537.29l5.01,7.99
			h-3.3l-5.09-7.91L103.87,537.29z"/>
		<path class="st2" d="M121.1,538.38c0,0.82,0.2,1.55,0.61,2.21c0.41,0.66,0.95,1.18,1.62,1.57c0.67,0.39,1.43,0.59,2.26,0.59
			c0.89,0,1.68-0.2,2.37-0.59c0.69-0.39,1.24-0.91,1.64-1.57c0.4-0.66,0.6-1.39,0.6-2.21v-12.43h2.8v12.51
			c0,1.4-0.33,2.63-0.98,3.69c-0.66,1.06-1.55,1.88-2.66,2.46c-1.12,0.59-2.37,0.88-3.75,0.88c-1.35,0-2.58-0.29-3.7-0.88
			s-2-1.41-2.65-2.46c-0.65-1.06-0.97-2.29-0.97-3.69v-12.51h2.82V538.38z"/>
		<path class="st2" d="M154.59,529.65c-0.67-0.35-1.4-0.66-2.18-0.9c-0.78-0.25-1.53-0.37-2.26-0.37c-0.99,0-1.78,0.23-2.37,0.68
			c-0.59,0.45-0.88,1.07-0.88,1.85c0,0.55,0.2,1.03,0.59,1.44c0.39,0.41,0.9,0.76,1.52,1.06c0.62,0.3,1.28,0.59,1.97,0.85
			c0.59,0.21,1.17,0.47,1.74,0.76c0.58,0.29,1.1,0.65,1.57,1.08c0.47,0.43,0.84,0.95,1.12,1.58c0.28,0.63,0.41,1.4,0.41,2.3
			c0,1.03-0.25,1.96-0.76,2.8c-0.51,0.83-1.24,1.5-2.18,1.98c-0.95,0.49-2.1,0.73-3.45,0.73c-0.82,0-1.61-0.09-2.38-0.28
			c-0.77-0.19-1.5-0.44-2.18-0.75c-0.68-0.31-1.3-0.65-1.85-1.03l1.28-2.21c0.43,0.3,0.91,0.59,1.47,0.87s1.12,0.49,1.72,0.65
			c0.59,0.16,1.16,0.24,1.69,0.24c0.59,0,1.16-0.1,1.73-0.31c0.57-0.2,1.04-0.52,1.41-0.96c0.37-0.44,0.56-1.01,0.56-1.72
			c0-0.6-0.16-1.11-0.49-1.53c-0.33-0.42-0.76-0.78-1.3-1.08s-1.12-0.57-1.74-0.8c-0.6-0.23-1.22-0.49-1.84-0.77
			c-0.62-0.28-1.2-0.63-1.73-1.02c-0.53-0.4-0.96-0.9-1.29-1.49c-0.33-0.59-0.49-1.33-0.49-2.2c0-1.03,0.24-1.93,0.73-2.7
			c0.49-0.77,1.17-1.38,2.04-1.82c0.87-0.44,1.87-0.69,3.01-0.75c1.29,0,2.42,0.16,3.38,0.48c0.96,0.32,1.81,0.7,2.56,1.14
			L154.59,529.65z"/>
		<path class="st2" d="M165,525.95h12.89v2.74h-5.09v16.59h-2.85v-16.59H165V525.95z"/>
	</g>
	<g>
		<path class="st2" d="M253.85,529.65c-0.67-0.35-1.4-0.66-2.18-0.9c-0.78-0.25-1.53-0.37-2.26-0.37c-0.99,0-1.78,0.23-2.37,0.68
			c-0.59,0.45-0.88,1.07-0.88,1.85c0,0.55,0.2,1.03,0.59,1.44c0.39,0.41,0.9,0.76,1.52,1.06c0.62,0.3,1.28,0.59,1.97,0.85
			c0.59,0.21,1.17,0.47,1.74,0.76c0.58,0.29,1.1,0.65,1.57,1.08c0.47,0.43,0.84,0.95,1.12,1.58c0.28,0.63,0.41,1.4,0.41,2.3
			c0,1.03-0.25,1.96-0.76,2.8c-0.51,0.83-1.24,1.5-2.18,1.98c-0.95,0.49-2.1,0.73-3.45,0.73c-0.82,0-1.61-0.09-2.38-0.28
			c-0.77-0.19-1.5-0.44-2.18-0.75c-0.68-0.31-1.3-0.65-1.85-1.03l1.28-2.21c0.43,0.3,0.91,0.59,1.47,0.87
			c0.55,0.28,1.12,0.49,1.72,0.65c0.59,0.16,1.16,0.24,1.69,0.24c0.59,0,1.16-0.1,1.73-0.31c0.57-0.2,1.04-0.52,1.41-0.96
			c0.37-0.44,0.56-1.01,0.56-1.72c0-0.6-0.16-1.11-0.49-1.53c-0.33-0.42-0.76-0.78-1.3-1.08s-1.12-0.57-1.74-0.8
			c-0.6-0.23-1.22-0.49-1.84-0.77c-0.62-0.28-1.2-0.63-1.73-1.02c-0.53-0.4-0.96-0.9-1.29-1.49c-0.33-0.59-0.49-1.33-0.49-2.2
			c0-1.03,0.24-1.93,0.73-2.7c0.49-0.77,1.17-1.38,2.04-1.82c0.87-0.44,1.87-0.69,3.01-0.75c1.29,0,2.42,0.16,3.38,0.48
			c0.96,0.32,1.81,0.7,2.56,1.14L253.85,529.65z"/>
		<path class="st2" d="M263.17,545.28l8.49-20.1h0.16l8.49,20.1h-3.25l-6.18-15.66l2.05-1.36l-6.98,17.01H263.17z M268.33,538.04
			h6.87l0.99,2.45h-8.71L268.33,538.04z"/>
		<path class="st2" d="M289.63,525.95h11.58v2.74h-8.74v5.8h7.64v2.72h-7.64v8.07h-2.85V525.95z"/>
		<path class="st2" d="M311.23,525.95h12.7v2.74h-9.85v5.51h8.76v2.74h-8.76v5.59h10.22v2.74h-13.07V525.95z"/>
		<path class="st2" d="M333.12,525.95H346v2.74h-5.09v16.59h-2.85v-16.59h-4.95V525.95z"/>
		<path class="st2" d="M360.99,538.91l-7.16-12.97h3.52l5.56,10.54l-0.85,0.05l5.51-10.6h3.49l-7.22,12.97v6.36h-2.85V538.91z"/>
	</g>
	<g>
		<polygon class="st0" points="218.78,535.16 205.65,525.42 205.65,546.04 		"/>
	</g>
	<g>
		<path class="st2" d="M437.04,535.64c0-1.33,0.25-2.59,0.76-3.78c0.51-1.19,1.21-2.25,2.12-3.17s1.95-1.65,3.14-2.17
			c1.19-0.52,2.47-0.78,3.83-0.78c1.35,0,2.62,0.26,3.81,0.78c1.19,0.52,2.25,1.25,3.17,2.17c0.92,0.92,1.64,1.98,2.16,3.17
			c0.51,1.19,0.77,2.45,0.77,3.78c0,1.37-0.26,2.65-0.77,3.83c-0.52,1.19-1.23,2.24-2.14,3.14c-0.91,0.9-1.97,1.61-3.17,2.12
			c-1.2,0.51-2.47,0.76-3.82,0.76c-1.37,0-2.64-0.25-3.83-0.75c-1.19-0.5-2.24-1.19-3.14-2.09c-0.91-0.9-1.61-1.94-2.12-3.14
			C437.29,538.31,437.04,537.02,437.04,535.64z M439.97,535.66c0,0.96,0.18,1.87,0.55,2.73c0.36,0.86,0.86,1.61,1.5,2.26
			c0.64,0.65,1.38,1.16,2.22,1.53c0.84,0.37,1.75,0.56,2.73,0.56c0.96,0,1.86-0.19,2.69-0.56c0.83-0.37,1.57-0.88,2.2-1.52
			c0.63-0.64,1.12-1.39,1.48-2.25c0.36-0.86,0.53-1.79,0.53-2.78c0-0.98-0.18-1.89-0.55-2.74c-0.36-0.85-0.86-1.6-1.49-2.25
			c-0.63-0.65-1.37-1.16-2.21-1.53s-1.74-0.56-2.7-0.56c-0.99,0-1.91,0.19-2.74,0.56c-0.83,0.37-1.57,0.89-2.21,1.54
			c-0.64,0.66-1.13,1.41-1.48,2.26C440.14,533.77,439.97,534.69,439.97,535.66z M451.15,542.51h6.5v2.77H447.4L451.15,542.51z"/>
		<path class="st2" d="M470.32,538.38c0,0.82,0.2,1.55,0.61,2.21c0.41,0.66,0.95,1.18,1.62,1.57s1.43,0.59,2.26,0.59
			c0.89,0,1.68-0.2,2.37-0.59c0.69-0.39,1.24-0.91,1.64-1.57c0.4-0.66,0.6-1.39,0.6-2.21v-12.43h2.8v12.51
			c0,1.4-0.33,2.63-0.98,3.69c-0.66,1.06-1.55,1.88-2.66,2.46s-2.37,0.88-3.75,0.88c-1.35,0-2.58-0.29-3.7-0.88
			c-1.12-0.59-2-1.41-2.65-2.46c-0.65-1.06-0.97-2.29-0.97-3.69v-12.51h2.82V538.38z"/>
		<path class="st2" d="M490.88,545.28l8.49-20.1h0.16l8.49,20.1h-3.25l-6.18-15.66l2.05-1.36l-6.98,17.01H490.88z M496.04,538.04
			h6.87l0.99,2.45h-8.71L496.04,538.04z"/>
		<path class="st2" d="M517.35,525.95h2.85v16.59h9.67v2.74h-12.51V525.95z"/>
		<path class="st2" d="M539.87,525.95h2.85v19.33h-2.85V525.95z"/>
		<path class="st2" d="M552.6,525.95h12.89v2.74h-5.09v16.59h-2.85v-16.59h-4.95V525.95z"/>
		<path class="st2" d="M580.48,538.91l-7.16-12.97h3.52l5.56,10.54l-0.85,0.05l5.51-10.6h3.49l-7.22,12.97v6.36h-2.85V538.91z"/>
	</g>
	<g>
		<polygon class="st0" points="412.36,535.16 399.23,525.42 399.23,546.04 		"/>
	</g>
</g>
</svg>
