<?xml version="1.0" encoding="utf-8"?>
<!-- Generator: Adobe Illustrator 26.0.3, SVG Export Plug-In . SVG Version: 6.00 Build 0)  -->
<svg version="1.0" id="Layer_1" xmlns="http://www.w3.org/2000/svg" xmlns:xlink="http://www.w3.org/1999/xlink" x="0px" y="0px"
	 viewBox="0 0 218 180" style="enable-background:new 0 0 218 180;" xml:space="preserve">
<style type="text/css">
	.st0{fill:#FFFFFF;}
	.st1{fill:#029D49;}
	.st2{fill:#0A713B;}
	.st3{fill:#2A215B;}
</style>
<g>
	<g>
		<g>
			<polygon class="st0" points="1.02,144.51 9.72,144.51 9.72,163.44 14.5,163.44 14.5,144.51 23.21,144.51 23.21,140.42 
				1.02,140.42 			"/>
		</g>
		<g>
			<path class="st0" d="M47.89,143.37c-1.18-1.04-2.6-1.84-4.26-2.41c-1.66-0.57-3.49-0.85-5.49-0.85c-2.01,0-3.84,0.28-5.5,0.85
				c-1.65,0.57-3.07,1.37-4.25,2.41c-1.18,1.04-2.1,2.28-2.75,3.72c-0.65,1.44-0.98,3.03-0.98,4.77c0,1.75,0.33,3.35,0.98,4.81
				c0.65,1.46,1.57,2.71,2.75,3.76c1.18,1.05,2.6,1.87,4.25,2.45c1.65,0.58,3.49,0.88,5.5,0.88c2,0,3.83-0.29,5.49-0.88
				c1.66-0.58,3.08-1.4,4.26-2.45c1.18-1.05,2.1-2.31,2.75-3.76c0.65-1.46,0.98-3.06,0.98-4.81c0-1.74-0.33-3.33-0.98-4.77
				C49.99,145.65,49.08,144.41,47.89,143.37z M46.18,155.08c-0.44,0.95-1.05,1.77-1.82,2.44c-0.77,0.67-1.69,1.19-2.75,1.55
				c-1.06,0.36-2.22,0.55-3.46,0.55c-1.25,0-2.4-0.18-3.46-0.55c-1.06-0.36-1.98-0.88-2.76-1.55c-0.78-0.67-1.39-1.48-1.82-2.44
				c-0.44-0.95-0.66-2.02-0.66-3.21c0-1.19,0.22-2.25,0.66-3.2c0.44-0.94,1.05-1.74,1.82-2.39c0.78-0.65,1.7-1.15,2.76-1.5
				c1.06-0.34,2.21-0.52,3.46-0.52c1.25,0,2.4,0.17,3.46,0.52c1.06,0.34,1.98,0.84,2.75,1.5c0.77,0.65,1.38,1.45,1.82,2.39
				c0.44,0.94,0.66,2.01,0.66,3.2C46.85,153.05,46.62,154.12,46.18,155.08z"/>
		</g>
		<g>
			<path class="st0" d="M72.67,158.81l2.25,4.63h5.02l-11.4-23.03h-5.07L52.4,163.44h5.04l2.19-4.63H72.67z M66.05,145.26l5.1,10.46
				H61.09L66.05,145.26z"/>
		</g>
		<g>
			<path class="st0" d="M181.43,140.42l-11.07,23.03h5.04l2.19-4.63h13.04l2.26,4.63h5.02l-11.4-23.03H181.43z M179.04,155.72
				l4.96-10.46l5.1,10.46H179.04z"/>
		</g>
		<g>
			<polygon class="st0" points="102.55,158.35 87.66,140.42 83.07,140.42 83.07,163.44 87.85,163.44 87.85,145.54 102.71,163.44 
				107.33,163.44 107.33,140.42 102.55,140.42 			"/>
		</g>
		<g>
			<polygon class="st0" points="162.9,147.34 148.24,147.34 148.24,140.42 143.46,140.42 143.46,163.44 148.24,163.44 
				148.24,150.42 162.9,150.42 162.9,163.44 167.7,163.44 167.7,140.42 162.9,140.42 			"/>
		</g>
		<g>
			<polygon class="st0" points="195.64,140.42 195.64,144.51 204.35,144.51 204.35,163.44 209.13,163.44 209.13,144.51 
				217.83,144.51 217.83,140.42 			"/>
		</g>
		<g>
			<path class="st0" d="M134.18,141.01C134.18,141.01,134.18,141.01,134.18,141.01c-0.03-0.01-0.05-0.02-0.08-0.02
				c-1.15-0.33-2.48-0.52-3.99-0.56c-0.11,0-0.21-0.01-0.32-0.01c-0.13,0-0.26,0-0.39,0h-12.43v23.03h4.78v-7.2h4.77
				c0.04,0,0.07,0,0.11,0c0.04,0,0.07,0,0.11,0h4.1c0.02,0,0.05,0,0.07,0c0.02,0,0.03,0,0.05,0h0.33l-0.01-0.01
				c4.45-0.19,8-3.66,8-7.92C139.29,145.04,137.19,142.22,134.18,141.01z M134.94,149.33c0,0,0,0.01,0,0.01
				c-0.04,0.4-0.12,0.78-0.24,1.13c-0.02,0.06-0.05,0.13-0.07,0.19c-0.23,0.55-0.57,1.03-1.03,1.41c-0.46,0.39-1.03,0.69-1.7,0.9
				c-0.68,0.21-1.47,0.32-2.38,0.32h-7.77v-8.81h7.77c1.81,0,3.17,0.38,4.08,1.14c0.91,0.76,1.37,1.83,1.37,3.19
				C134.96,148.99,134.95,149.16,134.94,149.33z"/>
		</g>
	</g>
	<path class="st1" d="M169.99,79.94l0.07-0.03l-0.1-0.13l-11.6-53.72L109.43,1.27L60.65,25.74L48.84,79.68l33.38,43.92h53.93
		l0.29-0.37l0,0l0-0.01l33.56-43.22L169.99,79.94z M138.61,113.68l4.65-20.45l18.29-9.09L138.61,113.68z M134.12,119.46h-0.02
		l-21.65-10.91l28.13-13.99l-5.33,23.44L134.12,119.46z M53.36,78.78l15.4-19.95l6.87,31.18L53.37,78.8L53.36,78.78z M76.26,92.93
		l4.96,22.52L56.57,83.01L76.26,92.93z M84.48,119.46l-5.55-25.19l28.34,14.27l-21.96,10.92H84.48z M78.29,91.35L70.6,56.44
		l21.64-28.03l35.39,0.12l21.59,28.09l-7.97,35.04l-31.38,15.61L78.29,91.35z M104.94,8.16L91.1,26.08l-21.75-0.07L104.94,8.16z
		 M109.55,5.98l1.22,0.62l15.07,19.6l-31.82-0.1L109.55,5.98z M115.56,9.02l34.06,17.25l-20.85-0.07L115.56,9.02z M154.23,28.61
		l0.5,0.25l0.39,1.83l-5.23,22.99l-19.33-25.14L154.23,28.61z M64.76,28.32l24.56,0.08L69.95,53.48l-5.51-25.01L64.76,28.32z
		 M165.55,78.99l-0.72,0.93l-20.9,10.39l7.12-31.32l14.15,18.41L165.55,78.99z M151.72,56.06l4.55-20.01l7.79,36.07L151.72,56.06z
		 M63.19,33.54l4.92,22.34L54.41,73.62L63.19,33.54z M90.52,119.46l19.34-9.62l19.09,9.62H90.52z"/>
	<g>
		<g>
			<path class="st2" d="M23.69,172.56h4.22v0.9h-1.67v5.43h-0.93v-5.43h-1.62V172.56z"/>
			<path class="st2" d="M32.88,172.56c0.33,0,0.64,0.05,0.92,0.14c0.28,0.09,0.52,0.22,0.72,0.39c0.2,0.17,0.36,0.38,0.47,0.62
				s0.17,0.53,0.17,0.86c0,0.25-0.04,0.5-0.11,0.74c-0.08,0.24-0.2,0.47-0.37,0.66c-0.17,0.2-0.39,0.36-0.66,0.48
				c-0.27,0.12-0.61,0.18-1.02,0.18h-0.92v2.27h-0.93v-6.33H32.88z M32.98,175.73c0.24,0,0.44-0.04,0.6-0.11
				c0.16-0.08,0.28-0.17,0.37-0.28c0.09-0.11,0.15-0.24,0.19-0.37s0.06-0.26,0.06-0.38c0-0.12-0.02-0.24-0.06-0.37
				s-0.1-0.25-0.19-0.37c-0.09-0.12-0.21-0.21-0.36-0.29c-0.15-0.08-0.34-0.11-0.56-0.11h-0.96v2.28H32.98z M34.05,176.27l1.64,2.62
				h-1.08l-1.67-2.59L34.05,176.27z"/>
			<path class="st2" d="M39.7,176.63c0,0.27,0.07,0.51,0.2,0.72c0.13,0.22,0.31,0.39,0.53,0.51c0.22,0.13,0.47,0.19,0.74,0.19
				c0.29,0,0.55-0.06,0.78-0.19c0.23-0.13,0.41-0.3,0.54-0.51c0.13-0.22,0.2-0.46,0.2-0.72v-4.07h0.92v4.1
				c0,0.46-0.11,0.86-0.32,1.21c-0.22,0.35-0.51,0.62-0.87,0.81s-0.78,0.29-1.23,0.29c-0.44,0-0.85-0.1-1.21-0.29
				c-0.37-0.19-0.66-0.46-0.87-0.81c-0.21-0.35-0.32-0.75-0.32-1.21v-4.1h0.92V176.63z"/>
			<path class="st2" d="M50.67,173.77c-0.22-0.12-0.46-0.22-0.71-0.3c-0.26-0.08-0.5-0.12-0.74-0.12c-0.33,0-0.58,0.07-0.78,0.22
				c-0.19,0.15-0.29,0.35-0.29,0.61c0,0.18,0.06,0.34,0.19,0.47c0.13,0.13,0.29,0.25,0.5,0.35c0.2,0.1,0.42,0.19,0.65,0.28
				c0.19,0.07,0.38,0.15,0.57,0.25c0.19,0.1,0.36,0.21,0.51,0.35c0.15,0.14,0.28,0.31,0.37,0.52c0.09,0.21,0.14,0.46,0.14,0.75
				c0,0.34-0.08,0.64-0.25,0.92c-0.17,0.27-0.4,0.49-0.71,0.65c-0.31,0.16-0.69,0.24-1.13,0.24c-0.27,0-0.53-0.03-0.78-0.09
				c-0.25-0.06-0.49-0.14-0.71-0.24c-0.22-0.1-0.43-0.21-0.61-0.34l0.42-0.72c0.14,0.1,0.3,0.19,0.48,0.28s0.37,0.16,0.56,0.21
				c0.19,0.05,0.38,0.08,0.55,0.08c0.19,0,0.38-0.03,0.57-0.1c0.19-0.07,0.34-0.17,0.46-0.31c0.12-0.14,0.18-0.33,0.18-0.56
				c0-0.2-0.05-0.37-0.16-0.5c-0.11-0.14-0.25-0.25-0.43-0.35s-0.37-0.19-0.57-0.26c-0.2-0.08-0.4-0.16-0.6-0.25
				c-0.2-0.09-0.39-0.2-0.57-0.34c-0.17-0.13-0.32-0.29-0.42-0.49c-0.11-0.19-0.16-0.43-0.16-0.72c0-0.34,0.08-0.63,0.24-0.88
				c0.16-0.25,0.38-0.45,0.67-0.6c0.28-0.15,0.61-0.23,0.99-0.24c0.42,0,0.79,0.05,1.11,0.16c0.31,0.1,0.59,0.23,0.84,0.37
				L50.67,173.77z"/>
			<path class="st2" d="M54.08,172.56h4.22v0.9h-1.67v5.43H55.7v-5.43h-1.62V172.56z"/>
		</g>
		<g>
			<path class="st2" d="M83.17,173.77c-0.22-0.12-0.46-0.22-0.71-0.3c-0.26-0.08-0.5-0.12-0.74-0.12c-0.33,0-0.58,0.07-0.78,0.22
				c-0.19,0.15-0.29,0.35-0.29,0.61c0,0.18,0.06,0.34,0.19,0.47c0.13,0.13,0.29,0.25,0.5,0.35c0.2,0.1,0.42,0.19,0.65,0.28
				c0.19,0.07,0.38,0.15,0.57,0.25c0.19,0.1,0.36,0.21,0.51,0.35c0.15,0.14,0.28,0.31,0.37,0.52c0.09,0.21,0.14,0.46,0.14,0.75
				c0,0.34-0.08,0.64-0.25,0.92c-0.17,0.27-0.4,0.49-0.71,0.65c-0.31,0.16-0.69,0.24-1.13,0.24c-0.27,0-0.53-0.03-0.78-0.09
				c-0.25-0.06-0.49-0.14-0.71-0.24c-0.22-0.1-0.43-0.21-0.61-0.34l0.42-0.72c0.14,0.1,0.3,0.19,0.48,0.28s0.37,0.16,0.56,0.21
				c0.19,0.05,0.38,0.08,0.55,0.08c0.19,0,0.38-0.03,0.57-0.1c0.19-0.07,0.34-0.17,0.46-0.31c0.12-0.14,0.18-0.33,0.18-0.56
				c0-0.2-0.05-0.37-0.16-0.5c-0.11-0.14-0.25-0.25-0.43-0.35c-0.18-0.1-0.37-0.19-0.57-0.26c-0.2-0.08-0.4-0.16-0.6-0.25
				c-0.2-0.09-0.39-0.2-0.57-0.34c-0.17-0.13-0.32-0.29-0.42-0.49c-0.11-0.19-0.16-0.43-0.16-0.72c0-0.34,0.08-0.63,0.24-0.88
				c0.16-0.25,0.38-0.45,0.67-0.6c0.28-0.15,0.61-0.23,0.99-0.24c0.42,0,0.79,0.05,1.11,0.16c0.31,0.1,0.59,0.23,0.84,0.37
				L83.17,173.77z"/>
			<path class="st2" d="M86.23,178.89l2.78-6.58h0.05l2.78,6.58h-1.06l-2.02-5.13l0.67-0.44l-2.28,5.57H86.23z M87.92,176.52h2.25
				l0.32,0.8h-2.85L87.92,176.52z"/>
			<path class="st2" d="M94.89,172.56h3.79v0.9h-2.86v1.9h2.5v0.89h-2.5v2.64h-0.93V172.56z"/>
			<path class="st2" d="M101.97,172.56h4.16v0.9h-3.23v1.81h2.87v0.9h-2.87v1.83h3.35v0.9h-4.28V172.56z"/>
			<path class="st2" d="M109.14,172.56h4.22v0.9h-1.67v5.43h-0.93v-5.43h-1.62V172.56z"/>
			<path class="st2" d="M118.27,176.8l-2.35-4.25h1.15l1.82,3.45l-0.28,0.02l1.81-3.47h1.14l-2.36,4.25v2.08h-0.93V176.8z"/>
		</g>
		<g>
			<polygon class="st3" points="71.69,175.57 67.39,172.39 67.39,179.14 			"/>
		</g>
		<g>
			<path class="st2" d="M143.17,175.73c0-0.44,0.08-0.85,0.25-1.24c0.17-0.39,0.4-0.74,0.69-1.04c0.3-0.3,0.64-0.54,1.03-0.71
				c0.39-0.17,0.81-0.26,1.26-0.26c0.44,0,0.86,0.09,1.25,0.26c0.39,0.17,0.74,0.41,1.04,0.71c0.3,0.3,0.54,0.65,0.71,1.04
				c0.17,0.39,0.25,0.8,0.25,1.24c0,0.45-0.08,0.87-0.25,1.26c-0.17,0.39-0.4,0.73-0.7,1.03c-0.3,0.3-0.65,0.53-1.04,0.69
				c-0.39,0.17-0.81,0.25-1.25,0.25c-0.45,0-0.87-0.08-1.26-0.24c-0.39-0.16-0.73-0.39-1.03-0.68c-0.3-0.29-0.53-0.64-0.69-1.03
				C143.25,176.61,143.17,176.19,143.17,175.73z M144.13,175.74c0,0.31,0.06,0.61,0.18,0.89c0.12,0.28,0.28,0.53,0.49,0.74
				c0.21,0.21,0.45,0.38,0.73,0.5c0.28,0.12,0.57,0.18,0.89,0.18c0.31,0,0.61-0.06,0.88-0.18s0.51-0.29,0.72-0.5
				c0.21-0.21,0.37-0.45,0.48-0.74c0.12-0.28,0.17-0.59,0.17-0.91c0-0.32-0.06-0.62-0.18-0.9s-0.28-0.52-0.49-0.74
				c-0.21-0.21-0.45-0.38-0.72-0.5s-0.57-0.18-0.88-0.18c-0.33,0-0.63,0.06-0.9,0.18c-0.27,0.12-0.51,0.29-0.72,0.51
				s-0.37,0.46-0.48,0.74C144.19,175.12,144.13,175.42,144.13,175.74z M147.79,177.98h2.13v0.91h-3.36L147.79,177.98z"/>
			<path class="st2" d="M154.07,176.63c0,0.27,0.07,0.51,0.2,0.72c0.13,0.22,0.31,0.39,0.53,0.51c0.22,0.13,0.47,0.19,0.74,0.19
				c0.29,0,0.55-0.06,0.78-0.19c0.23-0.13,0.41-0.3,0.54-0.51c0.13-0.22,0.2-0.46,0.2-0.72v-4.07h0.92v4.1
				c0,0.46-0.11,0.86-0.32,1.21c-0.22,0.35-0.51,0.62-0.87,0.81s-0.78,0.29-1.23,0.29c-0.44,0-0.85-0.1-1.21-0.29
				c-0.37-0.19-0.66-0.46-0.87-0.81c-0.21-0.35-0.32-0.75-0.32-1.21v-4.1h0.92V176.63z"/>
			<path class="st2" d="M160.8,178.89l2.78-6.58h0.05l2.78,6.58h-1.06l-2.02-5.13l0.67-0.44l-2.28,5.57H160.8z M162.5,176.52h2.25
				l0.32,0.8h-2.85L162.5,176.52z"/>
			<path class="st2" d="M169.47,172.56h0.93v5.43h3.17v0.9h-4.1V172.56z"/>
			<path class="st2" d="M176.85,172.56h0.93v6.33h-0.93V172.56z"/>
			<path class="st2" d="M181.02,172.56h4.22v0.9h-1.67v5.43h-0.93v-5.43h-1.62V172.56z"/>
			<path class="st2" d="M190.15,176.8l-2.35-4.25h1.15l1.82,3.45l-0.28,0.02l1.81-3.47h1.14l-2.36,4.25v2.08h-0.93V176.8z"/>
		</g>
		<g>
			<polygon class="st3" points="135.09,175.57 130.79,172.39 130.79,179.14 			"/>
		</g>
	</g>
</g>
</svg>
