<?xml version="1.0" encoding="utf-8"?>
<!-- Generator: Adobe Illustrator 26.0.2, SVG Export Plug-In . SVG Version: 6.00 Build 0)  -->
<svg version="1.1" id="Layer_1" xmlns="http://www.w3.org/2000/svg" xmlns:xlink="http://www.w3.org/1999/xlink" x="0px" y="0px"
	 viewBox="0 0 218 180" style="enable-background:new 0 0 218 180;" xml:space="preserve">
<style type="text/css">
	.st0{fill:#FFFFFF;}
	.st1{fill:#029D49;}
	.st2{fill:#0A713B;}
</style>
<g>
	<g>
		<polygon class="st0" points="1,144.5 9.7,144.5 9.7,163.4 14.5,163.4 14.5,144.5 23.2,144.5 23.2,140.4 1,140.4 		"/>
	</g>
	<g>
		<path class="st0" d="M47.9,143.4c-1.2-1-2.6-1.8-4.3-2.4c-1.7-0.6-3.5-0.9-5.5-0.9c-2,0-3.8,0.3-5.5,0.9c-1.6,0.6-3.1,1.4-4.2,2.4
			c-1.2,1-2.1,2.3-2.8,3.7s-1,3-1,4.8c0,1.8,0.3,3.4,1,4.8c0.6,1.5,1.6,2.7,2.8,3.8c1.2,1.1,2.6,1.9,4.2,2.4
			c1.7,0.6,3.5,0.9,5.5,0.9c2,0,3.8-0.3,5.5-0.9c1.7-0.6,3.1-1.4,4.3-2.4s2.1-2.3,2.8-3.8c0.7-1.5,1-3.1,1-4.8c0-1.7-0.3-3.3-1-4.8
			S49.1,144.4,47.9,143.4z M46.2,155.1c-0.4,0.9-1,1.8-1.8,2.4s-1.7,1.2-2.8,1.6s-2.2,0.6-3.5,0.6c-1.2,0-2.4-0.2-3.5-0.6
			c-1.1-0.4-2-0.9-2.8-1.6s-1.4-1.5-1.8-2.4c-0.4-0.9-0.7-2-0.7-3.2s0.2-2.2,0.7-3.2c0.4-0.9,1-1.7,1.8-2.4c0.8-0.6,1.7-1.1,2.8-1.5
			c1.1-0.3,2.2-0.5,3.5-0.5s2.4,0.2,3.5,0.5c1.1,0.3,2,0.8,2.8,1.5c0.8,0.6,1.4,1.4,1.8,2.4s0.7,2,0.7,3.2
			C46.8,153.1,46.6,154.1,46.2,155.1z"/>
	</g>
	<g>
		<path class="st0" d="M72.7,158.8l2.2,4.6h5l-11.4-23h-5.1l-11.1,23h5l2.2-4.6H72.7z M66.1,145.3l5.1,10.5H61.1L66.1,145.3z"/>
	</g>
	<g>
		<path class="st0" d="M181.4,140.4l-11.1,23h5l2.2-4.6h13l2.3,4.6h5l-11.4-23H181.4z M179,155.7l5-10.5l5.1,10.5H179z"/>
	</g>
	<g>
		<polygon class="st0" points="102.6,158.4 87.7,140.4 83.1,140.4 83.1,163.4 87.8,163.4 87.8,145.5 102.7,163.4 107.3,163.4 
			107.3,140.4 102.6,140.4 		"/>
	</g>
	<g>
		<polygon class="st0" points="162.9,147.3 148.2,147.3 148.2,140.4 143.5,140.4 143.5,163.4 148.2,163.4 148.2,150.4 162.9,150.4 
			162.9,163.4 167.7,163.4 167.7,140.4 162.9,140.4 		"/>
	</g>
	<g>
		<polygon class="st0" points="195.6,140.4 195.6,144.5 204.4,144.5 204.4,163.4 209.1,163.4 209.1,144.5 217.8,144.5 217.8,140.4 
					"/>
	</g>
	<g>
		<path class="st0" d="M134.2,141L134.2,141C134.1,141,134.1,141,134.2,141c-1.2-0.4-2.6-0.5-4.1-0.6c-0.1,0-0.2,0-0.3,0
			c-0.1,0-0.3,0-0.4,0H117v23h4.8v-7.2h4.8c0,0,0.1,0,0.1,0s0.1,0,0.1,0h4.1c0,0,0.1,0,0.1,0s0,0,0.1,0h0.3l0,0c4.4-0.2,8-3.7,8-7.9
			C139.3,145,137.2,142.2,134.2,141z M134.9,149.3L134.9,149.3c0,0.4-0.1,0.8-0.2,1.1c0,0.1-0.1,0.1-0.1,0.2c-0.2,0.6-0.6,1-1,1.4
			c-0.5,0.4-1,0.7-1.7,0.9c-0.7,0.2-1.5,0.3-2.4,0.3h-7.8v-8.8h7.8c1.8,0,3.2,0.4,4.1,1.1s1.4,1.8,1.4,3.2
			C135,149,134.9,149.2,134.9,149.3z"/>
	</g>
</g>
<path class="st1" d="M170,79.9L170,79.9l0-0.2l-11.6-53.7L109.4,1.3L60.7,25.7L48.8,79.7l33.4,43.9h53.9l0.3-0.4l0,0v0L170,79.9
	L170,79.9z M138.6,113.7l4.6-20.5l18.3-9.1L138.6,113.7z M134.1,119.5L134.1,119.5l-21.7-10.9l28.1-14l-5.3,23.4L134.1,119.5z
	 M53.4,78.8l15.4-20L75.6,90L53.4,78.8L53.4,78.8z M76.3,92.9l5,22.5L56.6,83L76.3,92.9z M84.5,119.5l-5.6-25.2l28.3,14.3l-22,10.9
	C85.3,119.5,84.5,119.5,84.5,119.5z M78.3,91.3l-7.7-34.9l21.6-28l35.4,0.1l21.6,28.1l-8,35l-31.4,15.6L78.3,91.3z M104.9,8.2
	L91.1,26.1L69.3,26L104.9,8.2z M109.6,6l1.2,0.6l15.1,19.6L94,26.1L109.6,6z M115.6,9l34.1,17.2l-20.9-0.1L115.6,9z M154.2,28.6
	l0.5,0.2l0.4,1.8l-5.2,23l-19.3-25.1L154.2,28.6z M64.8,28.3l24.6,0.1L69.9,53.5l-5.5-25L64.8,28.3z M165.6,79l-0.7,0.9l-20.9,10.4
	l7.1-31.3l14.1,18.4L165.6,79z M151.7,56.1l4.6-20l7.8,36.1L151.7,56.1z M63.2,33.5l4.9,22.3L54.4,73.6L63.2,33.5z M90.5,119.5
	l19.3-9.6l19.1,9.6H90.5z"/>
<g>
	<path class="st2" d="M23.7,172.6h4.2v0.9h-1.7v5.4h-0.9v-5.4h-1.6C23.7,173.5,23.7,172.6,23.7,172.6z"/>
	<path class="st2" d="M32.9,172.6c0.3,0,0.6,0.1,0.9,0.1s0.5,0.2,0.7,0.4s0.4,0.4,0.5,0.6s0.2,0.5,0.2,0.9c0,0.2,0,0.5-0.1,0.7
		c-0.1,0.2-0.2,0.5-0.4,0.7c-0.2,0.2-0.4,0.4-0.7,0.5s-0.6,0.2-1,0.2h-0.9v2.3h-0.9v-6.3L32.9,172.6L32.9,172.6z M33,175.7
		c0.2,0,0.4,0,0.6-0.1c0.2-0.1,0.3-0.2,0.4-0.3s0.2-0.2,0.2-0.4s0.1-0.3,0.1-0.4c0-0.1,0-0.2-0.1-0.4s-0.1-0.2-0.2-0.4
		s-0.2-0.2-0.4-0.3c-0.2-0.1-0.3-0.1-0.6-0.1h-1v2.3L33,175.7L33,175.7z M34,176.3l1.6,2.6h-1.1l-1.7-2.6L34,176.3z"/>
	<path class="st2" d="M39.7,176.6c0,0.3,0.1,0.5,0.2,0.7c0.1,0.2,0.3,0.4,0.5,0.5c0.2,0.1,0.5,0.2,0.7,0.2c0.3,0,0.5-0.1,0.8-0.2
		s0.4-0.3,0.5-0.5c0.1-0.2,0.2-0.5,0.2-0.7v-4.1h0.9v4.1c0,0.5-0.1,0.9-0.3,1.2c-0.2,0.4-0.5,0.6-0.9,0.8s-0.8,0.3-1.2,0.3
		c-0.4,0-0.8-0.1-1.2-0.3c-0.4-0.2-0.7-0.5-0.9-0.8c-0.2-0.4-0.3-0.8-0.3-1.2v-4.1h0.9L39.7,176.6L39.7,176.6z"/>
	<path class="st2" d="M50.7,173.8c-0.2-0.1-0.5-0.2-0.7-0.3c-0.3-0.1-0.5-0.1-0.7-0.1c-0.3,0-0.6,0.1-0.8,0.2
		c-0.2,0.1-0.3,0.4-0.3,0.6c0,0.2,0.1,0.3,0.2,0.5c0.1,0.1,0.3,0.2,0.5,0.4c0.2,0.1,0.4,0.2,0.7,0.3c0.2,0.1,0.4,0.1,0.6,0.2
		s0.4,0.2,0.5,0.4c0.2,0.1,0.3,0.3,0.4,0.5s0.1,0.5,0.1,0.8c0,0.3-0.1,0.6-0.2,0.9c-0.2,0.3-0.4,0.5-0.7,0.6
		c-0.3,0.2-0.7,0.2-1.1,0.2c-0.3,0-0.5,0-0.8-0.1s-0.5-0.1-0.7-0.2c-0.2-0.1-0.4-0.2-0.6-0.3l0.4-0.7c0.1,0.1,0.3,0.2,0.5,0.3
		s0.4,0.2,0.6,0.2c0.2,0.1,0.4,0.1,0.5,0.1c0.2,0,0.4,0,0.6-0.1s0.3-0.2,0.5-0.3s0.2-0.3,0.2-0.6c0-0.2,0-0.4-0.2-0.5
		c-0.1-0.1-0.2-0.2-0.4-0.4s-0.4-0.2-0.6-0.3c-0.2-0.1-0.4-0.2-0.6-0.2c-0.2-0.1-0.4-0.2-0.6-0.3c-0.2-0.1-0.3-0.3-0.4-0.5
		c-0.1-0.2-0.2-0.4-0.2-0.7c0-0.3,0.1-0.6,0.2-0.9s0.4-0.4,0.7-0.6c0.3-0.1,0.6-0.2,1-0.2c0.4,0,0.8,0.1,1.1,0.2
		c0.3,0.1,0.6,0.2,0.8,0.4L50.7,173.8z"/>
	<path class="st2" d="M54.1,172.6h4.2v0.9h-1.7v5.4h-0.9v-5.4h-1.6V172.6z"/>
</g>
<g>
	<path class="st2" d="M83.2,173.8c-0.2-0.1-0.5-0.2-0.7-0.3c-0.3-0.1-0.5-0.1-0.7-0.1c-0.3,0-0.6,0.1-0.8,0.2
		c-0.2,0.1-0.3,0.4-0.3,0.6c0,0.2,0.1,0.3,0.2,0.5c0.1,0.1,0.3,0.2,0.5,0.4c0.2,0.1,0.4,0.2,0.7,0.3c0.2,0.1,0.4,0.1,0.6,0.2
		s0.4,0.2,0.5,0.4s0.3,0.3,0.4,0.5c0.1,0.2,0.1,0.5,0.1,0.8c0,0.3-0.1,0.6-0.2,0.9c-0.2,0.3-0.4,0.5-0.7,0.6
		c-0.3,0.2-0.7,0.2-1.1,0.2c-0.3,0-0.5,0-0.8-0.1s-0.5-0.1-0.7-0.2s-0.4-0.2-0.6-0.3l0.4-0.7c0.1,0.1,0.3,0.2,0.5,0.3
		s0.4,0.2,0.6,0.2c0.2,0.1,0.4,0.1,0.6,0.1c0.2,0,0.4,0,0.6-0.1s0.3-0.2,0.5-0.3s0.2-0.3,0.2-0.6c0-0.2-0.1-0.4-0.2-0.5
		c-0.1-0.1-0.2-0.2-0.4-0.4s-0.4-0.2-0.6-0.3c-0.2-0.1-0.4-0.2-0.6-0.2s-0.4-0.2-0.6-0.3c-0.2-0.1-0.3-0.3-0.4-0.5
		c-0.1-0.2-0.2-0.4-0.2-0.7c0-0.3,0.1-0.6,0.2-0.9c0.2-0.2,0.4-0.4,0.7-0.6c0.3-0.1,0.6-0.2,1-0.2c0.4,0,0.8,0.1,1.1,0.2
		c0.3,0.1,0.6,0.2,0.8,0.4L83.2,173.8z"/>
	<path class="st2" d="M86.2,178.9l2.8-6.6h0.1l2.8,6.6h-1.1l-2-5.1l0.7-0.4l-2.3,5.6H86.2z M87.9,176.5h2.2l0.3,0.8h-2.8L87.9,176.5
		z"/>
	<path class="st2" d="M94.9,172.6h3.8v0.9h-2.9v1.9h2.5v0.9h-2.5v2.6h-0.9V172.6z"/>
	<path class="st2" d="M102,172.6h4.2v0.9h-3.2v1.8h2.9v0.9h-2.9v1.8h3.3v0.9H102V172.6z"/>
	<path class="st2" d="M109.1,172.6h4.2v0.9h-1.7v5.4h-0.9v-5.4h-1.6V172.6z"/>
	<path class="st2" d="M118.3,176.8l-2.3-4.2h1.2l1.8,3.4l-0.3,0l1.8-3.5h1.1l-2.4,4.2v2.1h-0.9V176.8z"/>
</g>
<g>
	<polygon class="st0" points="71.7,175.6 67.4,172.4 67.4,179.1 	"/>
</g>
<g>
	<path class="st2" d="M143.2,175.7c0-0.4,0.1-0.9,0.2-1.2s0.4-0.7,0.7-1c0.3-0.3,0.6-0.5,1-0.7c0.4-0.2,0.8-0.3,1.3-0.3
		c0.4,0,0.9,0.1,1.2,0.3s0.7,0.4,1,0.7c0.3,0.3,0.5,0.6,0.7,1c0.2,0.4,0.2,0.8,0.2,1.2c0,0.4-0.1,0.9-0.2,1.3s-0.4,0.7-0.7,1
		s-0.6,0.5-1,0.7c-0.4,0.2-0.8,0.2-1.2,0.2c-0.4,0-0.9-0.1-1.3-0.2s-0.7-0.4-1-0.7s-0.5-0.6-0.7-1
		C143.2,176.6,143.2,176.2,143.2,175.7z M144.1,175.7c0,0.3,0.1,0.6,0.2,0.9s0.3,0.5,0.5,0.7s0.4,0.4,0.7,0.5s0.6,0.2,0.9,0.2
		c0.3,0,0.6-0.1,0.9-0.2s0.5-0.3,0.7-0.5s0.4-0.4,0.5-0.7c0.1-0.3,0.2-0.6,0.2-0.9s-0.1-0.6-0.2-0.9s-0.3-0.5-0.5-0.7
		c-0.2-0.2-0.4-0.4-0.7-0.5s-0.6-0.2-0.9-0.2c-0.3,0-0.6,0.1-0.9,0.2c-0.3,0.1-0.5,0.3-0.7,0.5s-0.4,0.5-0.5,0.7
		C144.2,175.1,144.1,175.4,144.1,175.7z M147.8,178h2.1v0.9h-3.4L147.8,178z"/>
	<path class="st2" d="M154.1,176.6c0,0.3,0.1,0.5,0.2,0.7c0.1,0.2,0.3,0.4,0.5,0.5c0.2,0.1,0.5,0.2,0.7,0.2c0.3,0,0.6-0.1,0.8-0.2
		s0.4-0.3,0.5-0.5c0.1-0.2,0.2-0.5,0.2-0.7v-4.1h0.9v4.1c0,0.5-0.1,0.9-0.3,1.2c-0.2,0.4-0.5,0.6-0.9,0.8s-0.8,0.3-1.2,0.3
		c-0.4,0-0.9-0.1-1.2-0.3c-0.4-0.2-0.7-0.5-0.9-0.8c-0.2-0.4-0.3-0.8-0.3-1.2v-4.1h0.9L154.1,176.6L154.1,176.6z"/>
	<path class="st2" d="M160.8,178.9l2.8-6.6h0.1l2.8,6.6h-1.1l-2-5.1l0.7-0.4l-2.3,5.6H160.8z M162.5,176.5h2.2l0.3,0.8h-2.9
		L162.5,176.5z"/>
	<path class="st2" d="M169.5,172.6h0.9v5.4h3.2v0.9h-4.1L169.5,172.6L169.5,172.6z"/>
	<path class="st2" d="M176.9,172.6h0.9v6.3h-0.9V172.6z"/>
	<path class="st2" d="M181,172.6h4.2v0.9h-1.7v5.4h-0.9v-5.4H181L181,172.6L181,172.6z"/>
	<path class="st2" d="M190.1,176.8l-2.4-4.2h1.1l1.8,3.4l-0.3,0l1.8-3.5h1.1l-2.4,4.2v2.1h-0.9V176.8z"/>
</g>
<g>
	<polygon class="st0" points="135.1,175.6 130.8,172.4 130.8,179.1 	"/>
</g>
</svg>
